<svg version="1.1" id="Layer_1" xmlns="http://www.w3.org/2000/svg" xmlns:xlink="http://www.w3.org/1999/xlink" x="0px" y="0px"
	 width="100%" viewBox="0 0 1024 1024" enable-background="new 0 0 1024 1024" xml:space="preserve">
<path fill="#000000" opacity="1.000000" stroke="none" 
	d="
M395.430786,544.598389 
	C406.703186,551.523560 418.367279,555.323242 431.336945,552.539978 
	C445.549225,549.490051 455.820923,537.911072 457.655670,523.313110 
	C459.174744,511.226929 459.169525,511.030762 446.902710,511.357025 
	C439.607239,511.551056 432.364655,512.517090 425.126495,510.549835 
	C418.387146,508.718170 414.099304,504.545502 413.297272,497.929382 
	C412.526581,491.571899 416.141388,487.590118 421.268799,484.720032 
	C429.728394,479.984711 439.211761,478.584259 448.538605,477.087250 
	C457.378357,475.668396 466.261383,473.985870 475.338928,474.662018 
	C477.997711,474.860046 480.626862,474.995239 483.253754,475.561981 
	C495.691284,478.245453 499.455536,481.941650 498.054199,494.341980 
	C495.584320,516.197815 491.939911,537.951233 479.284760,556.804443 
	C467.163361,574.862427 449.377747,583.770081 428.484100,587.068115 
	C414.330780,589.302307 400.280640,588.063538 386.556030,583.960571 
	C367.305084,578.205566 355.516266,565.229980 350.739838,545.886536 
	C346.510162,528.757141 345.805145,511.525879 348.442902,493.954285 
	C352.565155,466.493317 361.000885,440.843872 378.172760,418.717804 
	C386.623199,407.829437 395.002594,396.579987 407.475983,389.757233 
	C426.961975,379.098694 447.402283,378.402832 468.366669,384.648438 
	C474.430420,386.454865 480.444397,388.349945 486.017731,391.469879 
	C497.461548,397.876160 498.280823,407.026337 488.627167,415.756775 
	C481.077789,422.584167 472.951752,424.000458 463.728302,420.300781 
	C441.379456,411.336151 414.421173,420.350098 403.204742,441.919525 
	C391.310638,464.792328 383.721252,488.521210 384.020020,514.454956 
	C384.110901,522.346802 385.492035,530.032776 389.178955,537.143494 
	C390.646759,539.974304 392.352753,542.631287 395.430786,544.598389 
z"/>
<path fill="#000000" opacity="1.000000" stroke="none" 
	d="
M608.683960,423.365356 
	C631.475647,419.647430 651.829956,424.358734 669.737366,438.420349 
	C702.919739,464.476471 707.230713,513.748718 679.548462,545.578369 
	C643.795654,586.687683 576.557434,577.572876 554.608215,525.715637 
	C537.368652,484.985352 559.016907,436.956696 603.951660,424.717194 
	C605.397766,424.323273 606.832825,423.888885 608.683960,423.365356 
M679.184753,515.629578 
	C686.785767,491.019104 679.105469,465.456360 659.643127,450.588104 
	C632.631531,429.952667 596.963440,434.770813 575.955139,461.892944 
	C552.918701,491.633423 566.091675,538.120911 601.369751,551.256104 
	C632.300232,562.772522 666.723145,549.154053 679.184753,515.629578 
z"/>
<path fill="#000000" opacity="1.000000" stroke="none" 
	d="
M723.999390,570.554932 
	C720.656616,571.567444 717.668640,571.678101 714.822815,570.418701 
	C710.909912,568.687134 708.207214,566.098572 708.552002,561.283997 
	C710.238525,537.738770 711.789185,514.183655 713.563416,490.645233 
	C713.814880,487.309296 712.894409,485.110474 709.906250,483.867645 
	C705.978088,482.233856 704.128540,479.059967 703.097351,475.192230 
	C696.369629,449.959259 699.838379,426.043121 712.486328,403.360260 
	C713.604797,401.354553 715.235046,399.596100 716.817688,397.900238 
	C717.944031,396.693237 719.397339,395.546265 721.222412,396.172028 
	C723.178101,396.842590 723.091064,398.728638 723.190613,400.373108 
	C723.522400,405.855011 723.848633,411.337738 724.112000,416.823273 
	C726.027466,456.726410 727.957947,496.628845 729.805420,536.535156 
	C730.167358,544.352600 730.022095,552.194458 730.427429,560.008606 
	C730.684937,564.972229 728.864502,568.367432 723.999390,570.554932 
z"/>
<path fill="#000000" opacity="1.000000" stroke="none" 
	d="
M524.774048,485.103485 
	C524.988647,482.989136 525.095459,481.320221 525.413696,479.692657 
	C526.209106,475.624329 525.795288,472.337097 521.563660,470.040710 
	C518.130188,468.177399 516.899841,464.846954 516.974121,460.743195 
	C517.185181,449.083313 517.044495,437.417084 517.042664,425.753357 
	C517.042603,425.586731 517.023499,425.416229 517.051392,425.254089 
	C517.547241,422.370239 515.967407,417.597107 520.388611,417.668610 
	C524.828979,417.740417 523.975098,422.481201 524.035950,425.677399 
	C524.159607,432.173615 524.037048,438.674286 524.136169,445.171326 
	C524.161743,446.842743 523.397827,448.923065 525.693176,449.976135 
	C528.285217,449.291962 527.619080,447.141205 527.635864,445.472931 
	C527.712769,437.808868 527.661499,430.143616 527.686829,422.478851 
	C527.694763,420.096802 527.706055,417.270111 530.939575,417.374420 
	C533.950928,417.471558 534.245117,420.173523 534.252808,422.618286 
	C534.276428,430.116394 534.247742,437.614838 534.310486,445.112579 
	C534.325012,446.848724 533.789062,448.806488 535.540710,450.188171 
	C538.679688,449.667786 537.805115,447.215698 537.830933,445.460510 
	C537.936584,438.297150 537.843567,431.131104 537.897583,423.966583 
	C537.908691,422.489075 538.058105,420.961853 538.469910,419.552856 
	C538.855286,418.233978 539.891235,417.195862 541.402100,417.236298 
	C542.877197,417.275696 543.945190,418.232391 544.281250,419.615723 
	C544.669922,421.215576 544.923767,422.890167 544.931885,424.533783 
	C544.990173,436.363831 544.823975,448.197113 545.050049,460.023224 
	C545.139465,464.705719 543.498352,468.212830 539.628967,470.498077 
	C536.743164,472.202393 536.026672,474.468109 536.265564,477.571075 
	C537.516357,493.820007 538.697021,510.074463 539.855042,526.330322 
	C540.658813,537.613770 541.558411,548.894592 542.085327,560.191956 
	C542.411255,567.179077 538.043274,571.228760 530.912354,571.277954 
	C523.846985,571.326721 519.438538,567.238159 519.855225,560.241455 
	C520.903198,542.646301 522.283264,525.071106 523.478271,507.484375 
	C523.974365,500.183472 524.338379,492.873566 524.774048,485.103485 
z"/>
<path fill="#000000" opacity="1.000000" stroke="none" 
	d="
M730.944763,641.755615 
	C731.190918,637.866272 736.864929,633.648376 740.517029,634.396729 
	C741.414490,636.328064 738.591064,638.551941 741.310913,640.473694 
	C735.270874,642.559509 734.724854,647.130127 734.462341,652.066101 
	C737.937561,652.876160 738.919739,650.712097 740.071533,648.653748 
	C743.076660,643.282837 745.740540,637.693054 749.633362,632.870850 
	C751.295898,630.811523 752.982971,628.497375 756.276062,630.079956 
	C759.835388,631.790466 758.357239,634.390686 757.575439,636.908936 
	C757.142944,638.302307 756.796631,639.722412 756.185242,641.957520 
	C759.107971,637.953552 761.470825,634.635437 763.925354,631.386597 
	C765.263489,629.615356 766.967102,628.851990 769.157471,630.012512 
	C771.493042,631.249878 771.368225,633.051270 770.442932,635.100830 
	C767.905090,640.722412 768.256409,646.827576 767.472351,652.746094 
	C767.258179,654.362366 768.080872,656.971680 765.215393,656.858582 
	C762.559082,656.753784 761.556274,654.659607 761.822205,652.233215 
	C762.364014,647.290771 763.102112,642.369873 763.831421,636.899475 
	C759.506165,641.913147 757.329041,647.497803 755.509460,653.276184 
	C754.993164,654.915771 755.164429,657.366150 752.469299,656.992493 
	C749.702393,656.609009 749.416260,654.493652 749.534302,652.083923 
	C749.769409,647.286865 749.647522,642.460510 751.431519,637.818726 
	C746.482971,643.361877 743.936584,650.099731 741.766296,657.136536 
	C738.849426,656.415283 736.668213,655.476929 734.071533,655.635010 
	C731.028381,655.820251 729.171265,653.701050 729.630310,650.374268 
	C730.014282,647.591553 730.589172,644.835205 730.944763,641.755615 
z"/>
<path fill="#000000" opacity="1.000000" stroke="none" 
	d="
M341.962158,641.024170 
	C342.523224,640.666382 343.074615,640.292236 343.647034,639.953674 
	C346.208649,638.438538 349.106689,636.031128 351.487000,639.523682 
	C353.704437,642.777283 351.194031,645.404480 348.962128,647.784851 
	C347.640930,649.193970 345.210541,649.301331 344.535095,651.544495 
	C348.609894,651.418518 352.222107,649.090637 353.431122,645.928223 
	C354.143890,644.063782 354.896698,642.212769 355.695435,640.383545 
	C356.623688,638.257874 357.806732,637.375793 360.367218,638.518738 
	C365.984039,641.026062 369.907623,639.547180 372.876862,634.281799 
	C374.587341,631.248657 376.901337,628.977295 380.485321,628.369507 
	C381.934204,628.123779 383.670868,627.517456 384.366028,629.427673 
	C384.986298,631.132080 384.063080,632.711304 383.026428,634.030823 
	C381.366638,636.143494 380.839447,632.748962 379.313965,633.220337 
	C377.941956,635.497742 375.586426,637.688049 378.657379,640.378723 
	C371.345612,646.131775 372.636932,655.782471 368.200867,663.045471 
	C365.705170,661.584167 365.512665,659.611938 366.045715,657.387939 
	C366.975891,653.506897 367.931396,649.631897 368.887604,645.757202 
	C369.279510,644.169067 370.188507,642.411316 367.469177,641.920776 
	C365.315460,642.774475 367.170380,645.550537 364.809448,646.738525 
	C360.426483,644.708374 358.291565,647.478455 356.963776,651.528076 
	C355.592712,655.709534 353.718872,656.359070 351.213318,652.391418 
	C350.802429,652.511597 350.421844,652.515808 350.196686,652.705017 
	C347.409332,655.046814 344.404602,657.383362 340.936340,654.351624 
	C337.574615,651.412964 338.669891,647.741211 340.359100,644.270508 
	C340.794952,643.375122 341.315369,642.520874 341.896484,641.318481 
	C341.996094,640.989319 341.962189,641.024170 341.962158,641.024170 
z"/>
<path fill="#000000" opacity="1.000000" stroke="none" 
	d="
M698.679321,632.505676 
	C698.986511,635.407227 698.433716,638.095093 695.498413,637.848328 
	C692.449951,637.592041 695.003418,634.471130 694.013550,632.816345 
	C691.428528,631.963562 690.045288,633.855530 688.606445,635.333984 
	C685.465271,638.561462 684.023682,642.640564 683.484070,646.994080 
	C683.173523,649.499451 683.391235,652.508972 686.102722,653.368042 
	C688.780396,654.216431 689.995117,651.591980 691.117004,649.569824 
	C690.428040,647.372742 686.840088,649.101562 686.824036,645.800049 
	C689.176147,644.233032 692.177917,643.111572 694.935120,643.772095 
	C698.217102,644.558472 699.592346,643.144348 701.431091,641.028687 
	C703.061462,639.153015 705.039001,636.708740 708.177979,638.793701 
	C711.394165,640.929993 713.256958,643.601318 711.397522,647.610413 
	C710.978760,648.513489 710.671692,649.492676 710.119812,650.305359 
	C708.197754,653.135437 705.834900,655.638550 702.198914,655.689514 
	C698.341187,655.743530 697.968506,652.080994 696.531006,649.149719 
	C694.286804,651.140991 693.115295,653.796265 690.790649,655.409607 
	C685.460999,659.108704 679.573364,657.026978 678.054626,650.758057 
	C676.092224,642.657898 682.680725,631.677734 690.773560,629.538269 
	C693.945007,628.699829 696.725769,628.959106 698.679321,632.505676 
M706.758301,649.048279 
	C707.679260,647.264282 708.363647,645.457214 707.378601,643.428284 
	C703.108093,646.240295 702.275574,647.862366 702.951721,652.013062 
	C704.786865,652.228210 705.491577,650.783508 706.758301,649.048279 
z"/>
<path fill="#000000" opacity="1.000000" stroke="none" 
	d="
M150.017487,654.989929 
	C147.119614,656.025085 145.507996,653.591492 143.112747,652.143738 
	C138.030853,657.184143 131.439285,657.012207 124.955185,657.236206 
	C120.073944,657.404907 118.143066,655.060303 120.244484,650.819763 
	C122.258636,646.755371 121.796776,641.845947 125.023666,638.219543 
	C126.205040,636.891846 125.619110,635.147034 124.729294,633.551575 
	C123.454903,631.266663 124.615822,630.027710 126.931732,629.883484 
	C130.578888,629.656433 134.230576,629.786133 137.880798,629.221375 
	C139.878067,628.912354 141.417450,630.007202 141.182266,632.684448 
	C137.601166,634.324829 131.487213,632.136902 131.008392,638.984375 
	C132.292999,640.451233 135.595169,639.418640 135.705505,643.312378 
	C131.349243,644.509705 124.906128,644.317688 125.892212,652.506165 
	C129.809952,652.285645 133.925674,652.297607 137.821854,651.897583 
	C140.811279,651.590637 143.420197,649.100220 141.560577,644.874390 
	C140.633240,642.767090 139.239899,639.484863 142.155716,638.279724 
	C145.312469,636.974915 145.877075,640.470398 146.461502,642.616394 
	C147.896667,642.653076 148.174454,641.786560 148.671097,641.156433 
	C149.787323,639.740051 150.336731,636.632385 152.896896,638.466797 
	C154.923492,639.918762 153.041702,642.050232 151.857803,643.139099 
	C148.237396,646.469055 148.241882,650.174194 149.988220,654.648560 
	C149.997452,655.012573 150.017487,654.989929 150.017487,654.989929 
z"/>
<path fill="#000000" opacity="1.000000" stroke="none" 
	d="
M430.149048,638.782715 
	C430.286499,637.547852 432.392303,635.826904 429.332520,636.029541 
	C427.461548,636.153503 426.478607,634.968567 426.472290,633.314331 
	C426.466187,631.718811 428.007141,631.291870 429.257233,630.872437 
	C433.204102,629.548157 437.162567,628.222473 441.419403,629.366089 
	C443.552124,629.938904 445.564392,630.785217 446.739166,632.764832 
	C447.825348,634.595093 447.908356,636.800354 446.984680,638.539856 
	C443.966461,644.223816 448.635284,653.382812 438.940582,656.094055 
	C436.512634,656.773071 434.175232,657.492249 431.650513,657.314758 
	C425.875488,656.908752 423.985535,654.069946 426.027069,648.743530 
	C427.274017,645.490112 428.680603,642.297913 430.149048,638.782715 
M438.650421,651.386292 
	C440.661774,649.911377 443.202362,648.295288 441.974213,645.517578 
	C440.918640,643.130249 438.087708,644.359436 436.091003,644.466858 
	C431.183350,644.731140 432.045502,649.118042 430.643036,652.067200 
	C433.414062,653.524963 435.711670,652.812622 438.650421,651.386292 
M443.204285,637.886841 
	C444.887909,636.044373 445.159607,634.159607 442.404022,633.437683 
	C437.776489,632.225159 437.234192,635.948303 435.987732,638.994568 
	C438.603943,640.325989 440.664368,639.613892 443.204285,637.886841 
z"/>
<path fill="#000000" opacity="1.000000" stroke="none" 
	d="
M889.806580,654.911011 
	C887.060303,653.968811 887.038696,652.054688 887.546570,649.977966 
	C888.218323,647.230530 889.114502,644.576172 890.539856,642.096680 
	C893.030334,637.764404 894.386292,637.674194 897.325439,641.784119 
	C902.276978,639.211060 902.281372,639.211487 905.144165,642.605774 
	C906.090759,641.954590 907.011841,641.253906 907.997375,640.660217 
	C909.185913,639.944153 910.495544,639.513184 911.696106,640.540527 
	C912.924377,641.591553 912.511230,642.921265 912.052246,644.214600 
	C910.974060,647.253357 908.531494,649.936218 909.884888,653.606934 
	C910.293701,654.715515 909.235291,655.405823 908.197510,655.650391 
	C906.974548,655.938416 905.732605,655.639282 905.091553,654.590942 
	C904.334656,653.353088 903.925964,651.902344 903.330688,650.457581 
	C900.486084,650.802124 900.388916,656.511292 896.601868,654.464233 
	C894.392822,653.270203 895.909119,650.590881 896.490662,647.782043 
	C894.012695,650.556030 892.091370,652.706848 889.806580,654.911011 
z"/>
<path fill="#000000" opacity="1.000000" stroke="none" 
	d="
M342.010254,640.969482 
	C338.939453,643.880310 335.515289,646.217102 331.084717,646.254211 
	C328.510529,646.275818 327.790558,647.905518 327.002686,649.859436 
	C326.036316,652.256226 325.843018,655.057739 323.752838,657.047424 
	C320.242218,655.975464 319.582062,654.113831 321.066162,650.984070 
	C323.271088,646.334412 325.200378,641.554016 327.444550,636.373047 
	C325.232452,636.238708 322.252899,637.693420 321.812134,634.401611 
	C321.356781,631.001099 324.596130,631.175537 326.535645,630.379639 
	C328.987518,629.373352 331.622559,628.777344 334.330658,628.967529 
	C340.867584,629.426636 343.919037,633.837585 342.076355,640.651855 
	C341.962189,641.024170 341.996094,640.989319 342.010254,640.969482 
M331.811890,641.600220 
	C334.510132,641.962341 336.666779,640.805420 338.456970,638.988770 
	C339.913422,637.510803 340.282013,635.718872 338.423370,634.285828 
	C336.598053,632.878479 334.937927,633.477783 333.930695,635.426453 
	C332.964600,637.295593 331.479187,638.960327 331.811890,641.600220 
z"/>
<path fill="#000000" opacity="1.000000" stroke="none" 
	d="
M823.674683,649.849304 
	C824.052734,644.465759 827.070862,641.304932 831.080750,638.900452 
	C832.663208,637.951599 834.534790,637.083557 836.254517,638.200317 
	C838.199829,639.463684 839.070679,642.105591 838.494446,643.849304 
	C836.111511,651.059998 834.206299,658.646973 828.498352,664.199341 
	C824.979797,667.622009 821.220520,667.355408 816.895508,662.868103 
	C823.301331,663.743225 826.630249,660.871582 828.481689,655.423218 
	C826.138245,654.503113 823.639954,653.425964 823.674683,649.849304 
z"/>
<path fill="#000000" opacity="1.000000" stroke="none" 
	d="
M280.597229,652.501404 
	C281.297668,643.622742 284.631805,636.090088 289.350952,629.097717 
	C289.993134,628.146179 290.787445,627.235474 291.689514,626.535461 
	C293.093597,625.445923 294.576141,625.865906 295.773193,626.956665 
	C297.156128,628.216858 296.257935,629.371094 295.315216,630.377075 
	C292.563721,633.312866 290.231750,636.511169 288.792694,640.224426 
	C289.294678,641.004333 289.683167,640.545593 290.067261,640.291565 
	C292.390900,638.754578 294.740692,636.337463 297.554535,639.071350 
	C300.368530,641.805420 296.792694,643.403687 295.955780,645.448486 
	C295.216095,647.255798 293.370209,648.791809 293.982452,650.908508 
	C294.719482,653.456604 293.635864,654.466797 291.414154,654.472839 
	C288.839996,654.479797 288.669373,652.515503 288.824768,650.566162 
	C288.902588,649.590271 289.166962,648.629211 289.450439,647.104980 
	C286.408051,648.604675 285.662140,651.308960 284.298370,653.550598 
	C282.609650,656.326294 281.299316,655.967407 280.597229,652.501404 
z"/>
<path fill="#000000" opacity="1.000000" stroke="none" 
	d="
M149.990921,655.026978 
	C152.624573,650.756775 154.001633,645.944702 155.717651,641.276062 
	C157.920395,635.283203 158.242340,635.834961 164.101013,638.004272 
	C169.020111,639.825623 169.952881,641.923157 168.302719,646.377563 
	C166.299454,651.785095 162.984558,654.348755 158.007477,653.674927 
	C159.072021,649.878967 163.282700,647.711548 163.416901,643.109741 
	C159.705154,646.165039 157.857178,649.859009 156.307861,653.941223 
	C154.817673,657.867615 154.790405,662.378723 151.813339,666.191040 
	C148.060577,663.020691 150.265930,659.230408 149.991867,655.446838 
	C150.017487,654.989929 149.997452,655.012573 149.990921,655.026978 
z"/>
<path fill="#000000" opacity="1.000000" stroke="none" 
	d="
M492.037354,655.279297 
	C486.325256,656.015137 483.982178,653.914490 484.808990,648.885803 
	C485.731506,643.274780 488.863892,639.199707 494.201630,637.024414 
	C494.372528,634.774963 493.335846,633.060730 492.334473,631.352051 
	C491.282928,629.557739 490.945618,627.846313 493.100159,626.687134 
	C495.569702,625.358521 496.294403,627.515808 497.177124,629.022827 
	C502.234497,637.657349 500.333527,647.896118 492.037354,655.279297 
M491.107208,646.720947 
	C490.432587,648.443970 488.751373,649.968933 490.025726,652.498291 
	C493.700256,650.104553 494.772980,646.875549 494.899323,642.660889 
	C492.981354,643.562622 492.330750,644.949463 491.107208,646.720947 
z"/>
<path fill="#000000" opacity="1.000000" stroke="none" 
	d="
M557.039246,643.556519 
	C546.567078,642.199646 548.440063,652.075867 544.986877,656.611389 
	C542.464661,656.377808 540.553406,654.855957 541.364014,653.160339 
	C543.303467,649.103394 542.872864,644.299194 545.798401,640.590332 
	C547.342590,638.632690 548.448303,636.362671 546.500244,633.787659 
	C545.470520,632.426331 545.491211,630.499756 547.446716,630.260071 
	C551.854370,629.720032 556.323242,629.574646 560.769714,629.530701 
	C561.871765,629.519714 562.641968,630.754395 562.781921,632.379578 
	C560.927124,634.041199 558.365967,633.042358 556.296326,633.847290 
	C553.975525,634.749878 553.100952,636.512573 552.869141,638.767822 
	C554.119080,640.609558 558.617798,639.146240 557.039246,643.556519 
z"/>
<path fill="#000000" opacity="1.000000" stroke="none" 
	d="
M231.733795,654.399292 
	C226.461319,656.515320 225.902756,653.051208 225.353790,649.197571 
	C222.989044,650.239929 221.836823,652.241882 220.460556,654.009644 
	C219.641830,655.061279 218.763855,656.252808 217.202286,655.510132 
	C216.024033,654.949768 215.715118,653.705811 215.819656,652.521667 
	C216.253830,647.603088 218.225922,643.206177 221.121338,639.334595 
	C222.622559,637.327271 223.510941,637.820740 226.857285,641.943420 
	C227.814011,641.466858 228.820648,640.962463 229.829941,640.463379 
	C231.283569,639.744629 232.727081,639.540466 233.901474,640.914368 
	C235.018738,642.221436 234.280655,643.492981 233.423508,644.496155 
	C230.898026,647.451965 231.537216,650.800964 231.733795,654.399292 
z"/>
<path fill="#000000" opacity="1.000000" stroke="none" 
	d="
M467.530151,654.955017 
	C465.843964,648.656372 468.686859,643.500061 472.094604,639.553650 
	C475.586823,635.509460 475.913910,640.751831 477.189819,642.862488 
	C478.011780,642.312134 478.809723,641.734253 479.649292,641.224976 
	C481.222504,640.270752 482.877991,639.110046 484.606323,640.767151 
	C486.295563,642.386841 484.854156,643.822266 484.020081,645.181946 
	C482.371948,647.868713 481.438843,650.571533 483.642426,653.338562 
	C478.961945,656.395569 477.770813,655.722595 476.193176,649.219971 
	C474.014404,650.085632 473.030273,652.042419 471.695221,653.637695 
	C470.695343,654.832520 469.906830,656.735229 467.530151,654.955017 
z"/>
<path fill="#000000" opacity="1.000000" stroke="none" 
	d="
M524.771362,661.541077 
	C520.814697,663.488342 520.890381,660.550049 521.198975,658.536621 
	C521.799744,654.616272 522.908142,650.769592 523.886292,646.912720 
	C524.423279,644.795532 525.395508,642.703430 522.772522,640.750916 
	C525.490967,639.500122 526.809570,637.793213 527.728699,635.574951 
	C529.105225,632.252869 531.331970,629.566711 535.011169,628.583313 
	C536.570740,628.166382 538.437012,627.375305 539.619019,629.040710 
	C540.754944,630.641174 539.568054,632.221924 538.741333,633.633972 
	C537.316162,636.068298 536.024292,633.298340 534.279480,633.381836 
	C531.125916,642.608337 527.119873,651.584045 524.771362,661.541077 
z"/>
<path fill="#000000" opacity="1.000000" stroke="none" 
	d="
M807.858643,655.806763 
	C804.968933,654.902832 805.132935,652.815735 805.734497,650.878784 
	C806.665894,647.879761 807.733582,644.892944 809.091248,642.068115 
	C809.861938,640.464661 810.390686,637.721130 813.098267,638.622192 
	C815.261841,639.342285 815.576416,641.455017 814.523499,644.241638 
	C815.969116,643.083069 816.682495,642.393616 817.504395,641.876770 
	C819.270203,640.766174 821.102539,638.821960 823.219238,640.931030 
	C825.061035,642.766235 823.097961,644.248352 822.192749,645.701904 
	C820.597778,648.263428 820.209534,650.836182 822.075745,653.363525 
	C817.197693,656.356445 815.633545,655.163513 815.330566,648.089111 
	C812.791748,650.818909 810.500549,653.282410 807.858643,655.806763 
z"/>
<path fill="#000000" opacity="1.000000" stroke="none" 
	d="
M570.176758,654.796387 
	C568.167114,655.438538 566.922424,654.789246 566.045715,653.372375 
	C564.254456,650.477783 566.692261,643.734558 570.328186,640.401245 
	C573.922852,637.105652 576.869568,640.114868 579.910767,641.164307 
	C581.446594,641.694275 580.739990,643.428528 580.176453,644.673035 
	C579.071411,647.113159 578.325806,649.621704 578.164673,652.336243 
	C578.005005,655.025024 576.518860,656.244446 574.324585,654.197205 
	C572.514587,652.508484 571.718628,654.224182 570.176758,654.796387 
z"/>
<path fill="#000000" opacity="1.000000" stroke="none" 
	d="
M713.835022,644.071655 
	C714.059509,643.563843 714.115540,643.401245 714.213501,643.269958 
	C715.868103,641.053284 716.643433,636.424194 720.356995,638.457458 
	C724.014893,640.460205 719.398376,642.761292 719.004211,645.065063 
	C718.764221,646.467651 717.917786,647.766418 716.903625,650.143372 
	C720.282715,647.478943 721.479675,644.690735 722.813843,641.967896 
	C723.707458,640.144226 724.837891,638.130310 727.329895,639.346069 
	C729.800171,640.551270 728.411987,642.421936 727.610168,644.010315 
	C725.945984,647.307007 725.037964,650.773804 725.367920,654.311218 
	C722.667297,656.030212 721.651550,653.140198 719.657349,652.828796 
	C717.709656,653.703003 715.941345,656.508545 713.237671,654.129395 
	C710.866699,652.042969 711.826660,649.619263 712.655701,647.237122 
	C712.983154,646.296265 713.341675,645.366333 713.835022,644.071655 
z"/>
<path fill="#000000" opacity="1.000000" stroke="none" 
	d="
M800.757751,655.010986 
	C799.127869,654.223450 798.411743,652.797913 796.228821,654.042419 
	C792.696899,656.056091 790.060730,654.188293 790.367004,650.184265 
	C790.698303,645.853149 792.914062,642.385437 796.334167,639.760681 
	C799.471680,637.352844 802.052246,640.104919 804.512817,641.203552 
	C806.758667,642.206177 805.253723,644.587952 804.372498,645.943909 
	C802.534546,648.772156 805.053406,653.085510 800.757751,655.010986 
z"/>
<path fill="#000000" opacity="1.000000" stroke="none" 
	d="
M651.602051,654.918213 
	C650.046631,653.344971 648.915894,653.099731 647.125488,654.339661 
	C644.506836,656.153076 642.399292,654.794556 641.975464,652.025452 
	C641.231323,647.163086 643.668762,643.379333 647.097290,640.159485 
	C649.850769,637.573730 652.378662,639.621338 654.935730,640.569458 
	C655.521118,640.786621 656.125244,641.215820 656.487366,641.716248 
	C657.168457,642.657471 656.811951,643.859497 656.223022,644.522400 
	C653.533569,647.549866 656.792908,652.977356 651.602051,654.918213 
M648.641785,648.760986 
	C649.474243,647.241028 651.120361,646.060425 651.083740,643.488708 
	C648.148560,645.456909 647.145142,647.760742 647.108826,650.654846 
	C647.505432,650.177856 647.902039,649.700928 648.641785,648.760986 
z"/>
<path fill="#000000" opacity="1.000000" stroke="none" 
	d="
M383.301697,655.469238 
	C378.205231,656.151428 376.599548,653.381775 376.746399,649.330627 
	C376.913971,644.708496 379.177002,641.141968 383.214081,638.785645 
	C385.075226,637.699402 386.953644,637.325562 388.700653,638.988220 
	C390.629639,640.824097 390.176727,642.886169 389.076019,644.906006 
	C387.446960,647.895325 384.144531,649.068542 381.324036,651.321167 
	C384.661682,653.363037 385.815918,649.180481 388.578644,649.814392 
	C388.851013,653.350647 385.692596,653.895630 383.301697,655.469238 
z"/>
<path fill="#000000" opacity="1.000000" stroke="none" 
	d="
M203.976593,644.023376 
	C205.605240,642.386841 207.071716,640.529846 208.909668,639.177917 
	C210.634186,637.909485 212.791534,636.955200 214.820053,638.812378 
	C217.020264,640.826721 216.051620,643.098328 214.970749,645.181824 
	C214.042542,646.971008 212.522263,648.277954 210.732056,649.271484 
	C209.665833,649.863281 208.215240,650.155518 208.009186,651.815125 
	C210.781662,653.394531 211.877838,649.208191 215.132950,650.611206 
	C213.472046,653.808228 211.056747,655.775879 207.603989,655.512207 
	C203.999481,655.237000 202.685730,652.455139 202.881073,649.082947 
	C202.965851,647.619568 203.500717,646.182312 203.917145,644.360107 
	C204.003159,643.987061 203.976593,644.023376 203.976593,644.023376 
z"/>
<path fill="#000000" opacity="1.000000" stroke="none" 
	d="
M459.772705,652.298706 
	C461.731323,651.521729 463.431061,650.677368 465.348694,649.724854 
	C464.652100,653.511047 461.254669,656.325378 458.260925,655.630493 
	C454.780975,654.822632 453.393951,652.231018 453.899902,648.869263 
	C454.544067,644.588928 456.620789,641.055298 460.468781,638.819580 
	C462.259399,637.779114 464.189178,637.200317 465.984650,638.860168 
	C467.785126,640.524719 467.291931,642.442993 466.420959,644.339294 
	C465.267944,646.849915 463.357330,648.607483 460.935730,649.897156 
	C460.074341,650.355835 458.290375,650.432312 459.772705,652.298706 
z"/>
<path fill="#000000" opacity="1.000000" stroke="none" 
	d="
M259.039490,652.377319 
	C256.028229,654.814758 253.125061,657.446533 249.586884,654.330505 
	C245.940857,651.119568 247.474182,647.402405 249.379944,643.897278 
	C250.680618,641.505005 252.500534,639.606445 255.017792,638.438293 
	C256.649719,637.680969 258.192963,637.542114 259.657959,638.823853 
	C261.135529,640.116638 261.065399,641.600708 260.574402,643.358887 
	C259.894531,645.793579 258.252716,647.274231 256.330139,648.688904 
	C255.123932,649.576416 253.039536,649.715271 253.063400,651.977234 
	C255.178574,653.059021 255.992218,650.998230 257.332886,650.322083 
	C259.621277,649.168152 260.208008,649.819763 259.039490,652.377319 
z"/>
<path fill="#000000" opacity="1.000000" stroke="none" 
	d="
M181.008484,651.991089 
	C180.040161,652.627625 179.044800,653.226929 178.109116,653.908203 
	C176.004044,655.440979 173.832916,656.659973 171.296188,654.927734 
	C168.759018,653.195374 168.333328,650.595398 168.920273,647.844849 
	C169.748642,643.962952 171.712921,640.782898 175.276398,638.765076 
	C177.166000,637.695068 179.020462,637.365234 180.740601,639.054993 
	C182.481033,640.764771 181.993332,642.640808 181.094147,644.546936 
	C179.580612,647.755432 176.184525,649.126282 173.368393,651.428467 
	C176.063263,653.103149 176.976593,651.157959 178.216248,650.372559 
	C179.708893,649.426819 180.681488,649.420227 180.974213,651.727112 
	C180.991608,652.022705 181.008469,651.991089 181.008484,651.991089 
z"/>
<path fill="#000000" opacity="1.000000" stroke="none" 
	d="
M781.079346,650.484863 
	C778.707886,655.134460 775.135376,656.886169 772.231262,654.902222 
	C768.425415,652.302551 768.831299,648.743042 770.609314,645.148926 
	C771.954956,642.429077 773.713318,640.017822 776.570679,638.635559 
	C778.147156,637.873047 779.698669,637.415955 781.238220,638.679138 
	C782.933289,640.069824 782.892029,641.838745 782.228882,643.679321 
	C781.406311,645.962463 779.857239,647.615723 777.785156,648.892700 
	C776.617004,649.612610 774.800964,649.752991 774.667542,651.782532 
	C777.312866,653.417358 778.521301,649.420288 781.079346,650.484863 
z"/>
<path fill="#000000" opacity="1.000000" stroke="none" 
	d="
M886.674683,641.353394 
	C888.069397,647.655212 886.222046,651.913513 881.223572,654.586914 
	C879.441772,655.539795 877.554260,656.418152 875.595886,655.122925 
	C873.460510,653.710815 872.636780,651.571777 872.908142,649.084290 
	C873.163452,646.743774 874.003845,644.564636 875.319824,642.606506 
	C878.821899,637.395935 881.703064,637.008606 886.674683,641.353394 
M878.849365,647.345947 
	C878.412537,648.916382 876.614502,650.316406 878.334595,652.384216 
	C882.520813,650.837158 883.337158,647.701721 883.192139,643.527344 
	C880.802490,643.939270 879.986816,645.334412 878.849365,647.345947 
z"/>
<path fill="#000000" opacity="1.000000" stroke="none" 
	d="
M597.052246,642.960815 
	C598.140686,641.944763 599.167786,640.851196 600.332458,639.931763 
	C601.868225,638.719360 603.516052,636.998230 605.609924,638.450989 
	C607.878662,640.025208 610.542908,641.644775 609.988831,645.080872 
	C609.592834,647.536865 608.887939,649.932312 607.042480,651.810425 
	C604.766968,654.126160 602.282227,656.398865 598.817444,655.293762 
	C595.078125,654.101013 595.046753,650.685242 595.283875,646.756592 
	C595.959167,645.039734 596.505737,644.000244 597.052246,642.960815 
M602.048462,645.832214 
	C600.952942,647.756104 599.492615,649.624573 600.973816,652.334717 
	C605.112000,650.291443 606.101196,647.102661 605.951843,643.102478 
	C604.058716,643.181030 603.382202,644.431274 602.048462,645.832214 
z"/>
<path fill="#000000" opacity="1.000000" stroke="none" 
	d="
M850.949951,651.050354 
	C850.598633,651.402710 850.267578,651.778442 849.892761,652.103638 
	C847.127441,654.502380 844.298889,657.632690 840.412842,654.525940 
	C836.587463,651.467590 838.268616,647.651245 839.987854,644.127747 
	C840.867615,642.324768 842.137634,640.749390 843.809204,639.604797 
	C845.913757,638.163940 848.196472,636.736267 850.524170,639.020325 
	C852.851196,641.303528 851.457520,643.562378 850.061584,645.725952 
	C848.442078,648.236023 845.542786,649.332397 842.995056,651.262756 
	C846.389771,653.693420 847.931763,648.703552 850.790771,650.699219 
	C850.999573,650.984497 850.949951,651.050354 850.949951,651.050354 
z"/>
<path fill="#000000" opacity="1.000000" stroke="none" 
	d="
M457.139160,635.169189 
	C453.070526,641.888855 451.891083,649.271973 449.988251,656.604248 
	C446.486908,655.282837 445.958405,653.229980 446.477692,650.443787 
	C447.861603,643.018738 450.832062,636.196838 454.296265,629.571594 
	C455.269867,627.709595 456.458893,625.388489 459.230499,627.035828 
	C462.289276,628.853699 460.031494,630.623474 458.939514,632.343384 
	C458.406494,633.182922 457.855743,634.011292 457.139160,635.169189 
z"/>
<path fill="#000000" opacity="1.000000" stroke="none" 
	d="
M297.899750,646.193848 
	C299.166626,643.197021 300.767120,640.890076 303.196106,639.310059 
	C305.012238,638.128662 307.041809,636.867493 309.062683,638.765564 
	C311.120789,640.698608 310.474945,643.033936 309.325317,645.156372 
	C308.274109,647.097168 306.485107,648.333008 304.590637,649.423706 
	C303.667877,649.954956 302.440826,650.383423 302.690613,651.923950 
	C305.265869,653.149597 306.323456,649.755615 308.531403,650.150574 
	C308.133453,653.500793 304.850952,656.171997 301.750854,655.686829 
	C298.168121,655.126221 296.718048,651.793457 297.899750,646.193848 
z"/>
<path fill="#000000" opacity="1.000000" stroke="none" 
	d="
M517.795532,652.753784 
	C514.902344,654.747559 512.227966,657.253662 509.044891,654.545105 
	C505.824280,651.804688 506.692780,648.247437 508.139435,644.896423 
	C508.659271,643.692383 509.421295,642.538086 510.288147,641.550049 
	C512.037842,639.556030 513.991577,637.033081 516.928345,638.333435 
	C520.134705,639.752930 522.021606,642.455994 521.231079,646.395142 
	C520.754028,648.772339 519.720459,650.772034 517.795532,652.753784 
M516.989502,643.891968 
	C512.358032,644.882324 512.210022,648.448547 511.374176,652.666809 
	C516.328064,651.106445 517.088440,647.910095 516.989502,643.891968 
z"/>
<path fill="#000000" opacity="1.000000" stroke="none" 
	d="
M622.565491,657.228149 
	C619.499146,654.153076 620.373230,651.263855 623.122620,649.437988 
	C625.887878,647.601501 626.757446,645.803711 626.147766,642.546509 
	C625.696594,640.135803 627.281372,638.065613 629.603638,637.027710 
	C631.372192,636.237305 632.807861,637.156128 634.007080,638.458069 
	C635.069397,639.611450 635.696106,640.855042 635.204712,642.518738 
	C634.459595,645.041077 632.411194,643.095398 631.155823,643.668152 
	C630.565369,655.339966 629.265808,657.488586 622.565491,657.228149 
z"/>
<path fill="#000000" opacity="1.000000" stroke="none" 
	d="
M563.331055,649.249451 
	C562.304565,651.687439 562.897827,654.257080 560.950256,656.352112 
	C557.974060,654.953674 557.526123,652.596008 558.164368,649.809753 
	C559.807373,642.637756 562.670288,635.927856 566.175964,629.496338 
	C567.198792,627.620056 568.541443,625.426270 571.209351,627.143738 
	C573.864136,628.852661 571.989258,630.576782 570.811340,632.102356 
	C566.962097,637.087769 565.283020,643.013062 563.331055,649.249451 
z"/>
<path fill="#000000" opacity="1.000000" stroke="none" 
	d="
M796.475220,627.514893 
	C797.379333,628.345215 797.812378,629.196167 797.252014,629.923889 
	C791.369446,637.564270 788.473877,646.450500 786.622375,655.920471 
	C782.513977,655.443848 782.471558,652.574707 783.084961,650.079895 
	C784.904358,642.680481 787.550781,635.555603 791.397583,628.927856 
	C792.532532,626.972351 793.929382,625.820923 796.475220,627.514893 
z"/>
<path fill="#000000" opacity="1.000000" stroke="none" 
	d="
M597.126587,642.629028 
	C596.505737,644.000244 595.959167,645.039734 595.305603,646.330200 
	C592.714294,649.043274 590.275513,651.553955 587.725830,653.946411 
	C586.509521,655.087708 585.049805,656.198914 583.258484,655.250854 
	C581.364868,654.248718 581.953186,652.482849 582.149109,650.818054 
	C582.439697,648.348083 582.610107,645.861206 582.747986,643.376892 
	C582.856384,641.424561 583.107788,639.498779 585.570435,639.462952 
	C588.258545,639.423828 588.124084,641.508484 588.096985,643.393799 
	C588.078064,644.704407 588.093384,646.015625 588.093384,647.945435 
	C591.379211,646.318848 591.963135,643.539795 593.102051,641.164124 
	C593.713196,639.889282 593.855896,637.816650 595.868103,638.219482 
	C598.270569,638.700623 597.449646,640.695801 597.126587,642.629028 
z"/>
<path fill="#000000" opacity="1.000000" stroke="none" 
	d="
M394.922424,639.662964 
	C396.674805,638.566772 398.151611,637.747803 399.886688,637.808350 
	C403.326233,637.928345 404.636688,639.876526 404.076660,643.114624 
	C403.804718,644.687012 402.890961,646.127258 401.085754,645.808411 
	C399.103882,645.458313 400.283234,643.674194 399.997833,642.034119 
	C396.789124,644.411255 395.568787,647.256226 395.854645,650.742859 
	C397.961975,652.610657 399.785461,649.623291 401.949615,650.964294 
	C400.330231,654.092712 398.132446,656.453735 394.587433,655.093933 
	C391.169128,653.782715 389.780609,650.549927 390.215179,646.907898 
	C390.565521,643.971741 392.272369,641.683655 394.922424,639.662964 
z"/>
<path fill="#000000" opacity="1.000000" stroke="none" 
	d="
M281.665649,639.860352 
	C279.697083,642.656433 276.212158,643.889099 275.772552,647.918030 
	C275.472931,650.663940 274.349640,653.177002 279.336914,652.469971 
	C277.672821,655.582764 275.814941,656.353027 273.300446,655.350037 
	C270.583679,654.266418 269.581421,652.295349 270.335114,649.367432 
	C271.148499,646.207581 272.993652,643.112671 270.234161,639.190918 
	C275.539001,639.634277 275.542328,631.279419 281.374908,634.197754 
	C282.686340,636.113708 280.057739,637.863892 281.665649,639.860352 
z"/>
<path fill="#000000" opacity="1.000000" stroke="none" 
	d="
M410.553955,647.335449 
	C409.892548,650.272278 408.457397,653.353882 413.830963,652.511292 
	C412.474670,655.701904 410.439514,656.164856 408.028717,655.482605 
	C405.616821,654.800110 404.288788,652.855713 404.834808,650.562012 
	C406.084351,645.312866 405.144226,639.309692 410.436707,635.346985 
	C412.415222,633.865662 413.804962,632.892578 416.123199,634.506042 
	C416.584839,636.504761 414.553741,638.652710 416.881042,640.791626 
	C413.261719,641.765137 411.357208,643.846680 410.553955,647.335449 
z"/>
<path fill="#000000" opacity="1.000000" stroke="none" 
	d="
M863.948547,639.766846 
	C865.674316,638.636536 867.132324,637.811829 868.859375,637.791443 
	C871.606567,637.759033 873.343140,639.029602 873.448975,641.883301 
	C873.520447,643.809204 873.013184,645.798157 870.723083,645.965820 
	C867.900635,646.172485 869.748108,643.480896 868.808289,642.165527 
	C865.886841,644.469360 864.466553,647.135010 865.379272,650.582458 
	C867.264832,652.423401 869.006653,649.510315 870.916748,651.067932 
	C870.124817,653.925293 867.962891,655.343628 865.234070,655.410339 
	C862.325195,655.481567 860.802673,653.158386 860.100220,650.698914 
	C858.885376,646.445740 860.309937,642.858032 863.948547,639.766846 
z"/>
<path fill="#000000" opacity="1.000000" stroke="none" 
	d="
M243.683716,642.373901 
	C240.524185,644.674072 238.926682,647.445007 239.846512,651.033752 
	C242.075638,652.528931 243.758728,649.342896 245.960709,651.163391 
	C244.712723,653.963806 242.598663,655.731323 239.534866,655.350342 
	C236.282059,654.945801 234.995132,652.306946 234.588989,649.308472 
	C233.919388,644.364990 237.543655,639.096191 242.300858,637.980469 
	C245.916428,637.132507 248.593246,639.139832 248.219894,642.486572 
	C248.026642,644.218933 247.434845,645.967224 245.328125,645.848633 
	C242.818604,645.707520 244.599274,643.457886 243.683716,642.373901 
z"/>
<path fill="#000000" opacity="1.000000" stroke="none" 
	d="
M668.270264,633.943848 
	C669.129456,637.200684 669.751404,639.914673 666.208557,642.405090 
	C663.415466,644.368530 663.296021,648.476379 662.820862,651.624084 
	C663.828308,653.381592 665.668945,651.730042 666.588379,653.228394 
	C666.413879,653.584412 666.308899,654.118225 665.985168,654.406067 
	C664.149475,656.038269 662.092957,656.246399 660.047058,654.902710 
	C657.742554,653.388977 657.601074,651.176331 658.283142,648.718506 
	C659.070190,645.882446 660.553894,643.093994 658.727661,639.690186 
	C662.827087,639.042725 663.198547,633.332275 668.270264,633.943848 
z"/>
<path fill="#000000" opacity="1.000000" stroke="none" 
	d="
M610.703369,654.554749 
	C608.386597,648.440125 612.200500,643.926819 614.160889,639.012756 
	C614.725037,637.598694 616.612976,637.358154 617.554504,638.443787 
	C619.324768,640.485046 621.242432,638.779785 623.283325,639.057922 
	C624.531860,641.574158 624.352722,643.994324 622.892944,646.801147 
	C617.484131,644.296692 615.565308,647.658325 614.193298,651.949829 
	C613.702820,653.483887 613.440857,655.395691 610.703369,654.554749 
z"/>
<path fill="#000000" opacity="1.000000" stroke="none" 
	d="
M195.978287,646.020630 
	C195.841019,646.113281 195.675629,646.311523 195.570465,646.283508 
	C189.479202,644.662170 187.594284,648.563171 185.684982,653.228027 
	C184.275787,656.671082 182.506607,654.933289 181.161209,652.308594 
	C181.008469,651.991089 180.991608,652.022705 180.985138,652.040649 
	C182.416458,648.346252 183.872330,644.640747 185.285782,640.919128 
	C186.267578,638.334106 187.805603,636.603333 190.400681,638.877991 
	C192.149857,640.411072 193.552185,638.315247 195.297119,639.188354 
	C196.966888,640.806213 195.862640,643.077637 196.044113,645.559204 
	C195.998627,645.998901 195.978271,646.020569 195.978287,646.020630 
z"/>
<path fill="#000000" opacity="1.000000" stroke="none" 
	d="
M196.005615,645.985962 
	C196.462860,645.087280 196.883621,644.185059 197.368393,643.318604 
	C199.659500,639.223877 201.105286,639.230164 203.918121,643.675903 
	C203.976593,644.023376 204.003159,643.987061 204.014893,643.967285 
	C200.576492,646.647217 201.101685,651.522400 198.206924,654.818909 
	C193.871796,653.023071 196.200653,649.512939 195.947998,646.401062 
	C195.978271,646.020569 195.998627,645.998901 196.005615,645.985962 
z"/>
<path fill="#000000" opacity="1.000000" stroke="none" 
	d="
M726.256592,636.737549 
	C724.436462,634.783020 722.028076,637.033264 720.269531,635.229858 
	C720.562012,632.856079 722.881775,632.120728 724.319946,630.702515 
	C725.058716,629.973938 726.261536,629.822266 727.026306,630.682495 
	C728.542603,632.388000 728.817078,634.604370 728.594971,636.724731 
	C728.495361,637.675415 727.283325,637.330261 726.256592,636.737549 
z"/>
<path fill="#000000" opacity="1.000000" stroke="none" 
	d="
M787.437744,633.693604 
	C785.240540,636.226990 783.004578,637.866455 779.251831,636.031067 
	C781.391724,633.787598 783.239502,631.850403 784.981506,630.024048 
	C787.170715,630.429565 787.517334,631.781250 787.437744,633.693604 
z"/>
<path fill="#000000" opacity="1.000000" stroke="none" 
	d="
M851.021729,650.949707 
	C852.402649,649.109619 853.966431,648.921570 855.748657,650.298828 
	C856.753540,651.075439 857.419678,652.042603 856.860779,653.299683 
	C856.205444,654.773621 854.989624,655.740051 853.320740,655.539062 
	C851.146606,655.277161 850.919495,653.570618 850.947449,651.425293 
	C850.949951,651.050354 850.999573,650.984497 851.021729,650.949707 
z"/>
<path fill="#000000" opacity="1.000000" stroke="none" 
	d="
M203.221680,631.803101 
	C205.418640,631.541626 207.003189,632.365906 206.958069,634.229675 
	C206.903732,636.474670 205.357132,637.957031 202.835617,638.578979 
	C201.094086,636.309387 201.385788,634.159119 203.221680,631.803101 
z"/>
<path fill="#000000" opacity="1.000000" stroke="none" 
	d="
M640.060669,550.297852 
	C609.995239,560.467102 573.798706,541.080933 568.225159,506.719666 
	C563.942871,480.319122 575.904602,455.651459 602.452942,444.565521 
	C626.123413,434.681366 655.663574,443.744965 669.614319,465.102417 
	C690.437927,496.981598 676.543518,537.509705 640.060669,550.297852 
z"/>
</svg>