<svg version="1.1" id="Layer_1" xmlns="http://www.w3.org/2000/svg" xmlns:xlink="http://www.w3.org/1999/xlink" x="0px" y="0px"
	 width="100%" viewBox="0 0 1024 1024" enable-background="new 0 0 1024 1024" xml:space="preserve">
<path fill="#000000" opacity="1.000000" stroke="none" 
	d="
M898.387695,538.647583 
	C899.562195,543.768127 898.907898,548.390869 897.940735,552.962708 
	C897.567810,554.725281 896.871399,556.739136 894.672546,556.905334 
	C892.796875,557.046997 891.527771,555.551514 890.997925,553.974609 
	C885.427490,537.398376 870.997620,532.184631 856.517212,527.291565 
	C846.343567,523.853821 836.539429,519.983093 828.514404,511.823944 
	C825.029053,518.672180 821.266968,525.074036 820.275513,532.638855 
	C819.350220,539.698547 815.321472,541.987061 808.645203,539.202698 
	C802.240295,536.531555 797.761047,531.633728 793.919128,526.085693 
	C784.534729,512.533752 778.237061,497.563019 773.515198,481.841888 
	C772.426758,478.218201 772.472473,473.868164 768.237732,471.346832 
	C765.976074,475.547058 767.733582,479.598145 768.611450,483.111420 
	C776.931030,516.407166 795.121216,542.704102 824.717163,560.713684 
	C840.678040,570.426086 857.929077,577.729858 873.979187,587.263611 
	C877.556396,589.388428 881.065491,591.641418 884.501099,593.988831 
	C894.778625,601.010986 901.320251,610.309143 902.645691,623.043396 
	C903.408875,630.375183 904.100037,637.741821 906.384949,644.888428 
	C897.784180,645.904602 896.941772,645.518555 893.431152,639.002808 
	C886.012329,625.233154 875.277039,614.579834 861.494202,607.540039 
	C838.545227,595.818726 818.753052,579.893311 799.555481,563.049927 
	C797.585876,561.321838 795.603882,559.607849 793.324646,558.164856 
	C796.829346,567.036011 803.038208,573.890259 809.700745,580.350769 
	C823.368835,593.604736 839.284912,603.604675 856.443115,611.605164 
	C870.814880,618.306458 881.083313,629.549255 890.894836,641.411743 
	C891.308228,641.911560 891.581848,642.547974 891.823914,643.158997 
	C891.931091,643.429321 891.796570,643.795288 891.762146,644.243469 
	C890.101624,645.966919 887.735901,645.327881 885.714355,645.688354 
	C872.131409,648.110779 860.109009,654.082458 849.026184,661.978577 
	C845.366211,664.586243 843.082764,664.413574 839.613159,661.507996 
	C825.404480,649.609314 816.111328,633.960999 806.106018,618.827148 
	C804.849304,616.926208 803.579773,615.033875 801.754456,613.502380 
	C809.525818,634.838562 819.852295,654.558594 837.944824,669.671265 
	C832.576477,675.732544 826.741699,680.679443 821.943604,686.622864 
	C814.367126,696.007874 807.620544,705.965820 802.684875,716.895264 
	C799.685303,723.537659 794.815430,727.919006 789.457092,732.126465 
	C780.760193,738.955261 771.137268,744.194702 761.042664,748.698669 
	C756.563782,750.697083 753.566284,750.523926 751.540833,745.622131 
	C750.797791,743.823975 749.433350,742.282593 747.983398,740.057922 
	C775.602478,726.826904 796.712158,708.120483 803.565552,677.127197 
	C799.320068,685.437561 795.227539,693.899658 789.805481,701.621338 
	C779.429199,716.398315 766.304749,727.834045 749.641968,735.110107 
	C746.434082,736.510925 744.338135,736.130554 742.594421,733.083740 
	C740.449829,729.336365 735.601990,726.252136 735.846375,722.321411 
	C736.131348,717.736206 742.370361,717.638611 745.871277,715.409607 
	C757.612122,707.934570 768.752625,699.774292 777.371033,688.721985 
	C790.566223,671.800537 795.289612,652.465515 794.052002,631.157043 
	C792.420593,603.068848 782.492493,577.704224 769.943726,553.074707 
	C769.455933,552.117310 769.288208,550.808411 767.787048,550.508301 
	C766.814941,552.382935 767.250183,554.399048 767.245361,556.318298 
	C767.201904,573.650391 766.699158,591.002808 767.359436,608.310059 
	C768.343140,634.095215 758.337769,655.269836 741.726440,674.006409 
	C735.196716,681.371643 728.069519,688.117310 720.548828,694.483521 
	C717.681580,696.910461 716.072083,696.376343 714.234253,693.544800 
	C712.331604,690.613342 710.363647,687.689941 708.108704,685.030579 
	C705.657410,682.139709 705.787048,680.230347 708.891174,677.736023 
	C717.743530,670.622803 725.773987,662.629578 732.664551,653.557068 
	C741.892944,641.406616 746.973572,628.044556 746.948242,612.433777 
	C746.760254,496.774475 746.855591,381.114685 746.861755,265.455048 
	C746.862122,258.292511 746.861450,258.277344 739.794250,258.277222 
	C588.803467,258.274994 437.812653,258.275574 286.821869,258.279968 
	C280.151398,258.280182 280.165039,258.299500 280.165131,264.856567 
	C280.166290,379.016235 280.508270,493.177826 279.870575,607.333923 
	C279.743530,630.072998 287.679016,648.095398 302.812103,663.864136 
	C319.837311,681.604370 340.097534,695.030640 361.397003,706.944702 
	C407.578522,732.776917 456.742157,751.312805 507.373291,766.228455 
	C511.192383,767.353577 514.754761,767.378357 518.580688,766.302917 
	C552.152893,756.865906 584.826416,744.942078 616.774780,731.004089 
	C623.603149,728.025085 623.562561,727.913879 627.920532,734.190857 
	C629.819397,736.925964 631.696045,739.676697 633.555115,742.438965 
	C633.723938,742.689636 633.689392,743.077087 633.749573,743.406677 
	C633.047485,745.219482 631.235291,745.489929 629.771423,746.141724 
	C592.749878,762.626587 554.624390,776.029114 515.625916,786.998352 
	C513.916199,787.479309 512.398621,787.295044 510.750275,786.852417 
	C462.016571,773.766174 414.918152,756.376038 370.023132,733.237915 
	C366.417328,731.379456 363.982819,731.308228 360.850891,734.323486 
	C345.515503,749.087708 326.918427,756.599426 305.754517,756.715210 
	C282.571564,756.841919 261.568115,749.267761 242.644638,736.079468 
	C227.038971,725.203430 214.443970,711.693298 207.567123,693.061523 
	C205.542694,694.784546 205.283768,696.963684 204.516525,698.795288 
	C201.386703,706.266907 197.243774,713.032349 191.040573,718.354248 
	C188.369980,720.645447 185.338135,722.365356 181.913513,723.371521 
	C160.005280,729.808289 160.008087,729.817810 144.937393,745.788635 
	C140.080856,740.665710 138.028000,734.203064 135.743301,727.867981 
	C128.277420,707.165955 132.868851,688.264343 144.340256,670.396545 
	C145.510147,668.574280 146.763443,666.805481 147.933411,664.983276 
	C148.899185,663.479126 150.623871,661.820862 149.088226,660.088135 
	C147.513168,658.310852 145.376038,659.297302 143.567719,660.232849 
	C138.769485,662.715210 133.619766,663.965820 128.320801,664.763611 
	C120.460510,665.946899 117.777176,663.740417 117.700935,655.893311 
	C117.683151,654.062622 117.376778,652.095825 117.915688,650.420898 
	C121.461174,639.401978 121.519226,627.793945 123.847023,616.590210 
	C125.347107,609.370239 129.460083,603.524109 135.066223,598.702698 
	C144.636292,590.472168 155.715225,584.688171 166.823288,578.951477 
	C183.098755,570.546082 199.756821,562.821411 214.327499,551.457458 
	C238.704041,532.445618 252.867966,507.380554 258.505493,477.232452 
	C258.926575,474.980743 258.801178,474.567078 257.465576,471.479584 
	C253.975021,472.797272 254.072037,476.149841 253.408524,478.859070 
	C248.992599,496.889526 241.278275,513.351074 230.272202,528.285095 
	C226.716248,533.110168 222.137802,536.680420 216.558029,538.761108 
	C210.122559,541.160950 206.836624,539.141541 205.585495,532.382690 
	C204.297073,525.422363 201.626358,519.049255 197.313873,512.576233 
	C183.576035,523.608276 166.275543,527.009766 151.350082,535.380432 
	C144.352386,539.304993 138.348282,544.036133 135.722351,552.093018 
	C135.073364,554.084290 133.825302,556.420227 131.275467,556.222839 
	C128.374176,555.998413 128.048904,553.308472 127.548119,551.017761 
	C125.760216,542.839600 127.015991,534.792603 128.581985,526.758972 
	C131.307266,512.778259 135.715103,499.399719 142.815659,486.983673 
	C146.412720,480.693848 150.769562,475.075439 156.855972,470.967926 
	C158.529755,469.838348 160.150406,468.655701 160.297684,466.241791 
	C158.453644,464.160522 156.370377,465.364685 154.410034,465.980225 
	C149.484772,467.526642 144.599670,469.221283 139.428024,469.767303 
	C137.948380,469.923523 136.420425,470.127991 134.967926,469.926361 
	C132.250519,469.549072 129.631989,468.610474 128.645782,465.737213 
	C127.601997,462.696136 129.526352,460.557831 131.661087,458.915436 
	C137.670471,454.291962 141.012924,448.110870 142.251038,440.821869 
	C142.830933,437.407928 142.803757,433.851318 142.708572,430.368744 
	C142.140991,409.598846 148.448303,392.054565 166.011719,379.599365 
	C169.981003,376.784515 173.184448,373.140991 175.965942,369.145477 
	C179.628479,363.884399 180.882187,358.602295 179.489563,351.842865 
	C175.786224,333.867767 176.075638,315.796600 181.684006,298.091675 
	C183.368774,292.773071 185.425095,290.027283 189.013611,287.680664 
	C191.502274,289.806152 191.332886,293.028809 192.073227,295.789459 
	C193.191437,299.959259 194.168564,304.198822 194.768250,308.470154 
	C196.998047,324.352448 207.204025,335.493408 217.537277,346.363831 
	C233.700317,363.367096 248.486282,381.273102 258.399323,402.763702 
	C258.498230,402.978149 258.883179,403.060638 259.707733,403.533142 
	C259.707733,400.588989 259.707703,397.984009 259.707733,395.379059 
	C259.708038,345.215454 259.705383,295.051819 259.712097,244.888199 
	C259.713013,237.969757 259.734497,237.934021 266.645874,237.933838 
	C430.635712,237.929504 594.625549,237.931488 758.615356,237.942001 
	C766.099792,237.942474 766.212830,238.063049 766.214783,245.442001 
	C766.228271,296.272186 766.226624,347.102356 766.229919,397.932526 
	C766.230042,399.591858 766.229919,401.251190 766.229919,402.910492 
	C766.461304,403.007263 766.692688,403.104004 766.924072,403.200745 
	C768.180115,400.660217 769.437805,398.120483 770.691833,395.578918 
	C779.200867,378.333893 791.424866,363.849609 804.543152,350.030396 
	C805.919678,348.580231 807.229736,347.054565 808.707031,345.714264 
	C823.566345,332.232971 831.552002,315.346405 833.817810,295.549072 
	C834.116394,292.940033 834.873962,290.348755 836.394775,287.842255 
	C839.775513,288.239868 840.776123,291.127594 842.052307,293.450104 
	C845.810913,300.290466 847.470398,307.925018 847.897034,315.496338 
	C848.597046,327.920929 849.655029,340.503815 846.222839,352.764740 
	C844.693970,358.226318 846.080139,362.895630 849.027832,367.412201 
	C852.432190,372.628662 856.564880,377.190094 861.460022,381.000671 
	C877.366211,393.382629 883.416870,410.152649 883.165833,429.675354 
	C883.086060,435.881378 883.185303,441.982361 885.564331,447.842133 
	C887.434082,452.447693 890.421692,456.109039 894.327332,459.159363 
	C896.319519,460.715363 898.090393,462.769287 897.325012,465.567535 
	C896.571411,468.322784 894.108398,469.103180 891.572632,469.689972 
	C885.033997,471.202850 879.035889,469.390320 873.159973,466.816803 
	C870.574158,465.684296 868.041504,464.477905 863.806030,466.541138 
	C889.080444,484.260712 895.567810,510.375488 898.387695,538.647583 
M334.767120,714.784485 
	C317.338837,703.886414 301.041656,691.573608 286.974762,676.484497 
	C269.015839,657.220642 258.361694,635.188721 259.566040,608.067505 
	C260.281799,591.949402 259.698395,575.773560 259.699036,559.623718 
	C259.699158,556.363953 259.699066,553.104187 259.699066,548.398926 
	C258.422607,550.478821 257.889282,551.248108 257.455292,552.069824 
	C249.665787,566.819031 243.079086,582.084106 238.457108,598.121338 
	C232.820831,617.677979 230.108109,637.478882 234.809036,657.689209 
	C240.568100,682.448669 256.232880,699.629944 277.080597,712.842529 
	C285.717041,718.315979 294.671021,723.149597 304.970398,724.434631 
	C314.611023,725.637451 324.257202,724.558167 333.820221,723.223145 
	C337.452820,722.716064 341.288727,723.485657 345.632843,721.666687 
	C341.780670,719.228210 338.579559,717.201843 334.767120,714.784485 
M804.738831,461.745209 
	C808.486755,466.927917 813.171326,471.108307 818.322632,474.869354 
	C827.087585,481.268616 836.446289,486.678131 845.970093,491.815674 
	C858.721313,498.694275 870.240295,506.993073 878.463989,519.226257 
	C878.570068,519.384033 878.980347,519.337402 879.461426,519.424866 
	C877.787354,512.993713 874.869751,507.289185 871.104126,501.974518 
	C863.925903,491.843018 853.718445,485.731659 842.848816,480.402252 
	C829.675720,473.943420 817.806396,465.768585 809.732849,453.138153 
	C797.053101,433.301636 796.489441,411.071014 797.301514,388.605469 
	C797.388550,386.198242 798.393494,383.708740 796.622253,381.351868 
	C794.109070,382.917480 793.725525,385.486267 793.346130,387.874847 
	C791.459534,399.750732 791.252014,411.672943 792.152161,423.674011 
	C793.167297,437.207123 796.883057,449.759399 804.738831,461.745209 
M158.362030,507.852661 
	C163.386337,503.172058 169.015991,499.328491 174.949127,495.914429 
	C184.618393,490.350616 194.245712,484.739258 203.533218,478.526550 
	C215.832932,470.298889 224.954788,459.756226 229.793716,445.598755 
	C235.692627,428.340088 235.860443,410.646973 234.090881,392.810181 
	C233.731781,389.190674 234.325012,385.045197 230.737579,382.282745 
	C229.440674,383.593445 229.714157,385.126831 229.800690,386.572235 
	C230.358643,395.895020 230.084625,405.184509 229.376465,414.504150 
	C227.085037,444.660675 212.757248,466.534027 185.353531,479.705414 
	C180.110687,482.225342 174.907166,484.901642 169.965363,487.958221 
	C158.449066,495.081268 151.145905,505.382019 148.217300,518.837036 
	C151.432648,515.342896 154.647995,511.848694 158.362030,507.852661 
M146.973190,720.031860 
	C150.748215,711.547058 154.143066,702.914185 159.555099,695.207397 
	C167.069061,684.507385 177.509079,676.956848 187.362473,668.839478 
	C206.431046,653.130493 217.008240,632.218262 225.192017,609.695984 
	C222.595108,613.122925 220.368652,616.790588 217.964020,620.337585 
	C206.961227,636.567200 197.040710,653.682007 180.991791,665.813904 
	C176.080353,669.526733 170.885071,672.936707 166.363861,677.079224 
	C153.857697,688.537720 145.728500,702.198120 146.973190,720.031860 
M154.136017,615.641052 
	C142.619476,625.056335 133.957352,637.020569 131.826920,646.739807 
	C132.695786,645.705078 133.366165,644.983276 133.951660,644.198181 
	C144.846985,629.588379 157.691467,617.624023 174.583664,609.728577 
	C194.467224,600.434937 212.286499,587.843933 226.514832,570.771057 
	C229.202545,567.545959 232.191345,564.427795 233.431976,560.006897 
	C231.100861,559.857178 230.217148,561.518127 229.055878,562.526672 
	C214.470230,575.194092 199.621475,587.515198 183.316208,597.959656 
	C173.934631,603.969116 163.471741,608.181458 154.136017,615.641052 
M225.463303,681.990051 
	C224.083572,678.815918 222.703842,675.641785 221.324097,672.467590 
	C226.009567,704.455017 245.634857,724.620056 273.729034,737.571350 
	C296.935944,748.269592 327.722595,747.098816 341.557617,735.649048 
	C337.133392,736.690186 332.982941,737.832092 328.767395,738.630249 
	C310.204407,742.145020 292.042297,741.455566 274.567383,733.383728 
	C251.692017,722.817383 236.280792,705.113159 225.463303,681.990051 
z"/>
<path fill="#000000" opacity="1.000000" stroke="none" 
	d="
M591.999756,283.429810 
	C498.352234,283.624237 405.204712,283.816986 312.057190,284.016541 
	C305.603485,284.030365 305.407776,284.209717 305.418945,290.837250 
	C305.504700,341.828461 305.524323,392.820038 305.736755,443.810760 
	C305.882538,478.795288 305.790344,513.776184 305.553955,548.760376 
	C305.407684,570.410278 306.243103,592.063416 305.471771,613.721619 
	C305.097900,624.219727 309.381622,633.154358 315.789154,641.191528 
	C327.071350,655.342957 341.400604,665.928589 356.536774,675.452148 
	C394.977844,699.639099 436.535706,717.095276 479.374542,731.697998 
	C488.669281,734.866394 498.123627,737.563965 507.458740,740.618164 
	C511.256866,741.860779 514.875916,741.833618 518.699646,740.683350 
	C547.281189,732.085754 575.228516,721.767883 602.642944,709.986267 
	C603.561096,709.591614 604.498718,709.223083 605.367676,708.736023 
	C608.770691,706.828735 610.338135,709.145325 611.562073,711.605103 
	C612.996887,714.488464 610.321411,714.941467 608.636414,715.684204 
	C584.847290,726.171875 560.491882,735.170044 535.750183,743.123962 
	C512.738647,750.521729 512.735107,750.433655 488.710907,742.523865 
	C445.088165,728.161377 402.744568,710.853760 363.058167,687.538513 
	C344.763916,676.790710 327.383026,664.772766 313.090302,648.800232 
	C302.912506,637.426331 297.667053,624.586304 297.708679,608.904663 
	C297.994904,501.085327 297.845123,393.264832 297.837769,285.444702 
	C297.837128,276.118347 297.844330,276.075958 307.168854,276.087128 
	C439.480682,276.245483 571.792542,276.416351 704.104370,276.583771 
	C710.926453,276.592407 717.749329,276.658020 724.570374,276.577301 
	C727.559204,276.541931 728.677673,277.781250 728.656982,280.773987 
	C728.604187,288.425140 728.857483,296.077881 728.860474,303.730042 
	C728.898865,403.717743 728.283691,503.712250 729.356018,603.688660 
	C729.644165,630.552307 717.214478,648.323425 698.348511,664.044250 
	C696.722107,665.399536 695.155518,666.520264 693.320068,664.135254 
	C691.604187,661.905823 691.403259,660.228821 693.829651,658.251099 
	C701.736145,651.806824 708.939758,644.686340 714.560913,636.066833 
	C719.237427,628.895874 721.664185,621.191956 721.659424,612.554321 
	C721.600159,505.400787 721.624695,398.247223 721.625366,291.093689 
	C721.625366,283.990265 721.616699,283.952179 714.462585,283.942780 
	C686.966003,283.906708 659.469238,283.940826 631.972839,283.858856 
	C618.814880,283.819641 605.657410,283.579102 591.999756,283.429810 
z"/>
<path fill="#000000" opacity="1.000000" stroke="none" 
	d="
M878.226013,717.732544 
	C878.823547,719.464233 879.319519,720.846191 879.815491,722.228088 
	C880.725891,712.773254 878.909973,703.955200 874.533142,695.628357 
	C870.220032,687.422791 863.495056,681.256470 856.280334,674.650635 
	C862.484192,669.848999 868.682861,666.458496 875.277100,663.734314 
	C876.994141,663.024902 878.049500,664.025574 879.029724,665.331055 
	C898.517334,691.285706 898.787598,715.096741 883.961426,743.234314 
	C883.504089,744.102234 882.935974,744.976379 881.818665,745.185913 
	C880.360901,745.266541 879.964966,743.989258 879.223877,743.154419 
	C870.614197,733.455872 860.547668,726.289185 847.428589,723.907654 
	C838.045349,722.204285 832.067322,715.771973 827.180298,708.096069 
	C826.140381,706.462585 826.289246,705.096619 827.351807,703.515991 
	C832.964661,695.166321 839.709595,687.856873 847.271423,681.246460 
	C849.458862,679.334290 850.966980,680.248657 852.929626,681.624146 
	C863.969482,689.361206 870.911987,700.157227 876.153687,712.258057 
	C876.880554,713.935974 877.470886,715.673035 878.226013,717.732544 
z"/>
<path fill="#000000" opacity="1.000000" stroke="none" 
	d="
M587.097046,569.935730 
	C599.143250,563.444092 609.509155,565.299622 617.447632,575.648376 
	C619.669006,578.544250 621.272461,577.580872 623.707153,576.596802 
	C626.024109,575.660339 629.118408,572.136292 630.912842,575.953003 
	C632.420349,579.159668 627.902100,579.467163 625.998291,580.977966 
	C624.999023,581.770935 623.780884,582.287964 622.528381,583.006042 
	C623.904602,584.482178 625.528992,583.778442 626.873718,584.210266 
	C631.407349,585.666260 632.716125,589.307678 629.782959,593.043823 
	C627.125427,596.429077 624.184570,599.511780 622.710938,603.772095 
	C621.828613,606.323120 619.090576,607.064209 616.454712,607.072388 
	C604.972839,607.108093 593.490601,607.138062 582.008911,607.080505 
	C578.493591,607.062866 575.869812,605.501587 575.077026,601.838074 
	C574.353333,598.493408 571.653198,596.616333 569.685852,594.197327 
	C568.201721,592.372620 566.528870,590.663513 567.493042,587.998535 
	C568.468018,585.303833 570.619507,583.976257 573.260010,584.012878 
	C576.503662,584.057678 577.998169,582.497620 579.033936,579.676147 
	C580.507996,575.660828 583.305298,572.588196 587.097046,569.935730 
M580.877258,601.016296 
	C581.321838,601.226074 581.765320,601.616211 582.211304,601.619080 
	C593.348694,601.691772 604.486450,601.729553 615.624084,601.752625 
	C616.622437,601.754700 617.965332,601.715454 618.213806,600.673035 
	C619.250549,596.323853 623.574951,594.084839 625.357666,589.597778 
	C607.937012,589.597778 590.987793,589.597778 573.704041,589.597778 
	C574.955750,594.234070 579.480835,596.205017 580.877258,601.016296 
M588.235779,572.780457 
	C587.908386,573.123108 587.581055,573.465759 587.253662,573.808411 
	C591.496643,571.403625 596.010742,569.985962 600.874512,569.637451 
	C596.347595,568.665710 592.453796,570.256165 588.235779,572.780457 
z"/>
<path fill="#000000" opacity="1.000000" stroke="none" 
	d="
M431.949951,585.909668 
	C426.315643,593.965088 420.969696,601.831665 413.984253,608.296082 
	C411.391693,610.695251 408.224945,615.006226 404.304047,611.592712 
	C400.373352,608.170593 403.679657,604.205505 405.858612,600.975464 
	C411.652557,592.386414 419.295837,585.378113 426.244904,577.788330 
	C435.457733,567.726013 444.090912,557.208801 452.301300,546.325806 
	C453.440216,544.816162 454.265625,542.529907 456.795837,543.006653 
	C459.348083,543.487488 459.842346,545.761719 460.516571,547.833374 
	C462.348938,553.463440 461.192200,558.684143 458.262024,563.589539 
	C455.962646,567.438965 453.443542,571.156433 451.061798,574.957458 
	C446.207947,582.703735 446.219025,582.710693 439.042480,577.499268 
	C435.718689,579.258911 434.568695,583.001343 431.949951,585.909668 
z"/>
<path fill="#000000" opacity="1.000000" stroke="none" 
	d="
M497.010254,452.090454 
	C495.075867,453.740021 495.442383,455.667023 495.430725,457.460724 
	C495.389618,463.790771 495.416016,470.121246 495.395050,476.451477 
	C495.387360,478.773529 495.027313,481.135986 497.924683,482.297028 
	C499.130066,482.780151 499.255524,484.134674 498.977966,485.351318 
	C498.662262,486.735138 497.552795,487.115540 496.327179,487.164276 
	C494.497498,487.237152 492.661804,487.291077 490.833374,487.224274 
	C489.072601,487.159912 486.945404,487.646362 486.181396,485.318542 
	C485.521698,483.308533 486.812500,482.311646 488.445953,481.481232 
	C489.896667,480.743713 489.652161,479.226410 489.657745,477.923340 
	C489.683502,471.938354 489.669037,465.953217 488.826691,459.735779 
	C486.610657,466.029510 484.397949,472.324402 482.176636,478.616272 
	C481.449860,480.674957 480.837769,482.854828 478.004211,482.851074 
	C475.157623,482.847321 474.572357,480.601837 473.841187,478.582092 
	C471.582581,472.342865 469.378845,466.083740 466.328003,459.876770 
	C466.328003,466.235779 466.332092,472.594788 466.325073,478.953796 
	C466.323395,480.470184 467.070862,481.361664 468.428375,482.008820 
	C469.801483,482.663452 470.252472,483.952667 469.802826,485.386353 
	C469.320251,486.924988 467.967072,487.153229 466.578400,487.186646 
	C465.412781,487.214691 464.237732,487.316925 463.082672,487.212006 
	C461.028717,487.025482 458.444763,488.066071 457.202881,485.639435 
	C455.937103,483.166107 458.270752,482.268890 459.744232,480.986267 
	C460.842224,480.030548 460.564392,478.521790 460.568787,477.202240 
	C460.588104,471.371765 460.661102,465.539886 460.561615,459.711151 
	C460.507416,456.535461 461.565552,453.004486 457.680603,450.880707 
	C456.480103,450.224426 456.593719,448.475677 457.709167,447.376617 
	C460.088776,445.031921 468.499115,446.906769 469.618866,450.081207 
	C472.055023,456.987640 474.357697,463.941071 476.766998,470.857147 
	C477.012115,471.560822 477.057556,472.534332 478.555725,472.878204 
	C480.942383,465.898041 483.355347,458.880188 485.739990,451.852722 
	C487.320068,447.196228 493.242249,444.518158 497.635193,446.852661 
	C500.484741,448.367004 499.384766,450.297882 497.010254,452.090454 
z"/>
<path fill="#000000" opacity="1.000000" stroke="none" 
	d="
M621.322998,457.757446 
	C624.272888,464.121002 627.060120,470.147430 629.847351,476.173859 
	C630.121948,476.158661 630.396484,476.143433 630.671082,476.128235 
	C630.671082,468.959534 630.678955,461.790802 630.662354,454.622162 
	C630.659973,453.576324 630.288940,452.641113 629.326172,452.099762 
	C627.748657,451.212769 626.524475,450.148102 627.408508,448.132385 
	C628.179932,446.373230 629.867310,446.724182 631.315613,446.632629 
	C632.477661,446.559143 633.655640,446.490662 634.809814,446.598969 
	C636.648376,446.771393 639.038513,445.582825 639.996948,448.235626 
	C640.820435,450.514801 639.048157,451.390503 637.495911,452.467072 
	C635.881897,453.586426 636.380493,455.488190 636.371460,457.100922 
	C636.324829,465.427795 636.373535,473.755219 636.314575,482.081970 
	C636.299988,484.145294 636.871155,486.704437 633.667358,487.102753 
	C630.875977,487.449799 628.535767,487.173462 627.122192,484.023438 
	C623.315430,475.540497 619.246033,467.175446 614.244385,458.885071 
	C614.244385,465.714905 614.226624,472.544891 614.274597,479.374390 
	C614.278931,479.985596 614.531311,480.849579 614.973694,481.157166 
	C616.534241,482.242004 618.219543,483.278137 617.336365,485.496399 
	C616.343018,487.991150 613.951233,487.059570 612.083801,487.199951 
	C610.431641,487.324158 608.715698,487.384064 607.102905,487.077667 
	C604.130859,486.512970 603.346069,484.247162 605.515930,482.524506 
	C607.814148,480.699890 607.761841,478.704163 607.762756,476.400879 
	C607.765198,470.238831 607.786194,464.076691 607.757751,457.914795 
	C607.746460,455.469696 607.821350,453.289276 605.545288,451.202972 
	C603.383118,449.221100 604.096741,447.032806 607.634521,446.614868 
	C615.263916,445.713562 615.860718,445.968475 619.092590,452.878357 
	C619.797363,454.385101 620.471863,455.905945 621.322998,457.757446 
z"/>
<path fill="#000000" opacity="1.000000" stroke="none" 
	d="
M673.136963,728.892334 
	C677.300354,734.868652 681.262512,740.549622 685.157593,746.134399 
	C683.618652,747.838623 682.645325,746.769836 681.749512,746.234192 
	C676.026917,742.812500 670.552917,739.001038 665.869934,734.252197 
	C663.279663,731.625549 661.119812,731.050415 657.636169,732.820984 
	C648.244812,737.594177 648.142944,737.423462 641.922119,728.849548 
	C640.470886,726.849365 639.122437,724.774719 637.408325,722.268921 
	C641.387878,719.085571 645.938110,717.498291 650.098511,715.303406 
	C660.022156,710.068115 660.048523,710.133179 666.344604,719.213318 
	C668.522705,722.354431 670.737732,725.469849 673.136963,728.892334 
z"/>
<path fill="#000000" opacity="1.000000" stroke="none" 
	d="
M397.118347,556.159729 
	C399.770325,553.858276 400.634857,556.242188 401.900482,557.599548 
	C404.998749,560.922363 406.599670,565.518066 411.618530,569.072937 
	C410.099762,563.717285 406.563019,561.244385 404.567291,557.834961 
	C403.368469,555.786926 399.480316,553.643188 402.514557,551.318542 
	C404.986481,549.424805 406.468597,553.254395 408.086487,554.919800 
	C410.701416,557.611511 412.418091,561.147095 416.469666,564.113098 
	C415.304749,559.145142 411.797424,557.145020 409.836060,554.127014 
	C409.025513,552.879761 407.909180,551.834900 406.981018,550.659302 
	C406.131653,549.583435 405.275055,548.358337 406.669769,547.182312 
	C407.893494,546.150452 409.246429,546.566589 410.244202,547.635925 
	C412.969696,550.557007 415.581299,553.584778 418.318481,556.494507 
	C419.029938,557.250854 419.599243,558.548340 421.440521,557.919556 
	C419.409607,553.946716 415.871582,551.431824 413.057007,548.317688 
	C411.856995,546.989929 409.847534,545.569214 411.451202,543.720825 
	C413.207886,541.696106 414.785614,543.764038 416.019348,544.934631 
	C419.641846,548.371765 423.383240,551.731506 426.628601,555.507874 
	C432.505249,562.345947 431.126648,569.389404 423.078613,575.548462 
	C418.334167,579.179321 410.667389,577.631897 406.447449,571.643494 
	C403.030884,566.794983 398.869934,562.348633 397.118347,556.159729 
z"/>
<path fill="#000000" opacity="1.000000" stroke="none" 
	d="
M589.541992,454.727264 
	C591.893799,462.758911 594.107849,470.428253 596.424133,478.066589 
	C596.797607,479.298157 597.366821,480.707794 598.303833,481.476562 
	C599.785889,482.692444 600.616943,483.927429 599.861023,485.729706 
	C599.130737,487.470856 597.403809,487.156586 595.945312,487.217529 
	C594.615295,487.273193 593.270081,487.311066 591.949280,487.179230 
	C588.114624,486.796326 587.288025,485.130615 589.300171,481.997986 
	C591.780518,478.136261 590.213501,474.899933 585.602844,474.519379 
	C584.119263,474.396942 582.608643,474.560944 581.112610,474.637573 
	C575.967102,474.901062 574.419800,477.889374 577.203308,482.258972 
	C578.894043,484.913025 578.558838,486.761871 575.180237,487.112305 
	C573.043030,487.333984 570.814819,487.358276 568.706116,487.003387 
	C565.987610,486.545837 565.294800,484.121155 567.094482,482.657532 
	C569.902649,480.373901 570.241394,477.260223 571.193848,474.358185 
	C573.008972,468.827698 574.491638,463.188690 576.153564,457.607025 
	C576.857788,455.241669 578.081543,452.936279 576.065979,450.564423 
	C575.721619,450.159180 575.781799,449.258179 575.905212,448.635803 
	C576.279785,446.747162 584.320312,445.560730 588.370117,446.756531 
	C591.234863,447.602478 590.661072,449.420380 589.828247,451.467560 
	C589.473816,452.338623 589.554932,453.386902 589.541992,454.727264 
M584.776184,459.153473 
	C584.307373,458.192474 584.377930,456.858521 582.663635,456.408203 
	C581.915894,458.567383 580.885498,460.662964 580.516479,462.869171 
	C580.182861,464.864380 578.164429,467.258514 580.085266,468.873993 
	C581.975281,470.463562 584.671875,469.859344 587.505981,468.931427 
	C586.631042,465.764771 585.810486,462.794983 584.776184,459.153473 
z"/>
<path fill="#000000" opacity="1.000000" stroke="none" 
	d="
M686.701782,446.284546 
	C691.762878,446.254822 696.410889,446.128052 701.058472,446.144226 
	C702.985840,446.150909 705.491089,445.792664 705.923035,448.441284 
	C706.394348,451.331360 707.254700,454.681488 705.230835,457.086578 
	C703.665344,458.946869 701.342896,458.241089 700.866577,455.588409 
	C699.843689,449.891907 695.422607,451.906586 692.589905,452.365051 
	C688.291016,453.060791 690.321167,457.154694 690.021484,459.830933 
	C689.588379,463.698212 692.331482,464.018524 695.229248,463.950989 
	C696.225769,463.927734 697.224609,463.972626 698.221558,464.009033 
	C700.028687,464.074890 701.637756,464.551147 701.720825,466.707153 
	C701.808228,468.976318 700.205322,469.383881 698.360596,469.351746 
	C698.028137,469.345947 697.695190,469.350922 697.362915,469.362091 
	C690.419189,469.595581 688.109619,472.878998 689.867859,479.711914 
	C690.480347,482.092102 692.263611,481.876556 693.784668,481.675751 
	C696.152527,481.363037 699.448303,483.282379 700.567139,479.483337 
	C701.091858,477.701996 701.028137,475.593567 703.644470,475.879211 
	C706.504211,476.191406 706.097168,478.567017 706.185364,480.498688 
	C706.473877,486.817535 706.043274,487.257080 699.649048,487.270477 
	C694.493713,487.281311 689.338013,487.280823 684.182922,487.236420 
	C682.529358,487.222168 680.694641,487.299927 680.095581,485.220703 
	C679.601868,483.507172 680.453003,482.392456 681.988647,481.635345 
	C683.603943,480.838989 683.643860,479.287659 683.644592,477.762695 
	C683.648071,470.611633 683.678406,463.460266 683.614929,456.309753 
	C683.605042,455.193085 683.485901,453.821869 682.848816,453.019989 
	C681.572449,451.413544 678.816711,450.376801 680.338135,447.797272 
	C681.593628,445.668823 684.165222,446.296783 686.701782,446.284546 
z"/>
<path fill="#000000" opacity="1.000000" stroke="none" 
	d="
M389.490448,453.805298 
	C388.395569,451.652649 385.581848,450.537354 387.038849,447.941254 
	C388.239899,445.801239 390.646912,446.864502 392.524353,446.558868 
	C393.504822,446.399292 394.517181,446.438019 395.514679,446.380035 
	C396.904633,446.299286 398.292267,446.388031 398.878937,447.893524 
	C399.399567,449.229462 399.276001,450.656219 397.897888,451.412201 
	C395.372009,452.797638 395.398529,455.083496 395.410309,457.465363 
	C395.439209,463.296173 395.371124,469.127686 395.430237,474.958008 
	C395.485962,480.454651 396.900848,481.692230 402.852722,481.701111 
	C408.788757,481.710022 409.852478,480.829224 409.930573,475.344818 
	C410.018341,469.182068 409.945038,463.017029 409.941650,456.852966 
	C409.940552,454.826935 409.910309,452.856506 407.887695,451.563354 
	C406.582214,450.728607 406.460510,449.318207 406.869049,447.985901 
	C407.385010,446.303314 408.909119,446.581451 410.218262,446.579132 
	C411.884125,446.576141 413.551514,446.571594 415.215424,446.638489 
	C416.516357,446.690735 418.010773,446.479675 418.746002,447.924500 
	C419.578735,449.560974 418.788361,450.721649 417.462921,451.754120 
	C415.932678,452.946167 416.240234,454.756226 416.227905,456.389191 
	C416.180054,462.719635 416.201202,469.050568 416.170166,475.381165 
	C416.131317,483.309631 412.224335,487.245392 404.265594,487.180115 
	C401.305328,487.155792 398.055664,488.132416 395.441803,486.428497 
	C392.060669,484.224457 389.429199,481.441986 389.597046,476.704865 
	C389.862305,469.219238 389.612244,461.715363 389.490448,453.805298 
z"/>
<path fill="#000000" opacity="1.000000" stroke="none" 
	d="
M343.477783,483.373962 
	C337.825500,488.944275 327.124817,488.883392 322.220825,483.650269 
	C320.511353,481.826080 319.727112,479.858856 319.756592,477.369049 
	C319.835388,470.707672 319.748840,464.044556 319.784088,457.382385 
	C319.820740,450.454620 323.572632,446.657532 330.466736,446.584656 
	C335.531250,446.531097 340.910156,445.385590 344.340820,450.900970 
	C345.248749,452.360687 346.110596,453.698364 346.058411,455.447632 
	C346.004517,457.254120 346.321167,459.374603 343.915039,459.916840 
	C341.412048,460.480896 341.025421,458.710449 340.543610,456.731354 
	C339.126984,450.912323 334.337158,452.249390 330.346741,452.361816 
	C326.453400,452.471527 326.142242,455.411957 326.157959,458.446259 
	C326.188965,464.442139 326.191864,470.438263 326.175385,476.434204 
	C326.168884,478.799774 326.780426,481.089630 329.320709,481.415283 
	C332.691772,481.847382 336.339325,482.645294 339.153961,479.540161 
	C340.939941,477.569885 340.871429,475.254120 340.365631,472.949890 
	C339.939941,471.010590 338.134460,471.260559 336.677826,471.175995 
	C334.745270,471.063843 333.494385,470.420532 333.648315,468.171509 
	C333.787109,466.143127 335.113861,465.604126 336.726959,465.790924 
	C339.697235,466.134857 344.287720,463.975739 345.276550,467.438019 
	C346.712891,472.467102 347.783783,478.239166 343.477783,483.373962 
z"/>
<path fill="#000000" opacity="1.000000" stroke="none" 
	d="
M653.866394,486.941376 
	C648.835510,483.949432 646.603882,480.033997 646.998718,474.358337 
	C647.401978,468.561157 646.945740,462.709503 647.153381,456.891998 
	C647.399719,449.990265 650.893982,446.911621 657.790894,446.522034 
	C663.011414,446.227112 668.176575,445.413544 671.546570,450.900421 
	C672.448242,452.368500 673.202881,453.772034 673.139160,455.508026 
	C673.073242,457.303345 673.423096,459.446991 670.975342,459.936584 
	C668.518005,460.428131 668.062195,458.703369 667.595032,456.705536 
	C666.216675,450.810944 661.370789,452.293457 657.424377,452.363190 
	C653.517212,452.432190 653.237488,455.420532 653.251709,458.438416 
	C653.279968,464.429291 653.267395,470.420410 653.292969,476.411285 
	C653.310486,480.523193 655.633972,481.780396 659.448608,481.740845 
	C663.430237,481.699524 666.917969,481.181366 667.610779,476.434509 
	C667.995972,473.795715 667.731323,471.329041 664.085449,471.188843 
	C662.270203,471.118988 660.775940,470.439026 660.865784,468.232941 
	C660.961365,465.884155 662.749390,465.600830 664.429871,465.795502 
	C667.216064,466.118256 671.419495,464.026245 672.458069,467.526794 
	C673.834656,472.166351 674.465393,477.503784 671.653076,482.018799 
	C669.505676,485.466248 666.449463,488.005859 661.741455,487.310211 
	C659.292236,486.948303 656.762939,487.127350 653.866394,486.941376 
z"/>
<path fill="#000000" opacity="1.000000" stroke="none" 
	d="
M530.862122,476.152710 
	C533.217896,478.754303 532.449402,481.685211 532.532471,484.426819 
	C532.595459,486.505188 531.039246,487.209015 529.146545,487.208710 
	C522.824585,487.207611 516.502502,487.222595 510.180756,487.181793 
	C508.838379,487.173126 507.416473,487.003052 506.988831,485.383545 
	C506.617462,483.977173 506.886139,482.616455 508.356201,482.022766 
	C510.376770,481.206757 510.172760,479.519623 510.342896,477.872925 
	C511.117035,470.380402 509.909302,462.919678 510.024048,455.438477 
	C510.042114,454.261505 509.565857,453.266968 508.800781,452.277466 
	C505.673248,448.232635 506.115417,447.530518 510.989655,446.477692 
	C517.336975,445.106689 523.580017,447.129120 529.881042,446.622162 
	C532.180176,446.437164 532.750977,448.131073 532.455505,449.946228 
	C532.054260,452.411194 533.757812,455.521301 530.906433,457.214050 
	C529.437744,458.085968 528.152344,457.084290 527.735474,455.199005 
	C526.471191,449.481415 521.835693,452.305908 518.713318,452.041168 
	C515.276123,451.749695 516.358582,454.997925 516.299561,456.899872 
	C516.086670,463.762878 516.160339,463.753387 522.954956,464.026123 
	C524.109619,464.072449 525.280334,464.169708 526.404236,464.420197 
	C527.750854,464.720276 528.172974,465.758209 528.132446,467.064911 
	C528.087402,468.516968 527.232361,469.120911 525.925110,469.246490 
	C525.098694,469.325928 524.264954,469.336273 523.433960,469.359314 
	C516.890381,469.540741 514.007141,473.824615 516.449646,479.868134 
	C517.669006,482.885132 520.435852,481.610474 522.566467,481.706146 
	C524.546814,481.795074 527.200623,482.551483 527.629517,479.261353 
	C527.859558,477.496948 528.117065,475.880554 530.862122,476.152710 
z"/>
<path fill="#000000" opacity="1.000000" stroke="none" 
	d="
M728.714844,740.223022 
	C719.092163,742.551819 709.695557,741.777039 700.310181,740.185364 
	C699.108154,739.981445 698.049988,739.444946 697.359802,738.463684 
	C694.062317,733.776001 690.296631,729.377319 687.164734,723.052307 
	C692.785767,723.435547 697.319336,723.719482 701.848206,724.064270 
	C704.003662,724.228271 706.237122,725.008789 708.286682,724.653259 
	C720.571045,722.522156 724.612610,731.308960 728.714844,740.223022 
z"/>
<path fill="#000000" opacity="1.000000" stroke="none" 
	d="
M364.166748,487.238647 
	C356.425537,487.075531 352.758392,483.440155 352.714233,476.258850 
	C352.675446,469.948303 352.672180,463.637268 352.702271,457.326660 
	C352.735657,450.331635 356.386353,446.517487 363.350891,446.688538 
	C368.106689,446.805389 373.353333,444.977417 377.146454,449.995178 
	C378.632080,451.960449 379.587769,453.702148 379.518951,456.227631 
	C379.342529,462.700165 379.425232,469.179626 379.398956,475.656342 
	C379.364899,484.045074 376.138123,487.213440 367.613190,487.236420 
	C366.616760,487.239105 365.620300,487.237701 364.166748,487.238647 
M367.261353,481.695099 
	C370.937073,481.832550 373.562805,480.536072 373.631439,476.454834 
	C373.740601,469.963928 373.669678,463.469879 373.660614,456.977142 
	C373.656342,453.922882 372.067047,452.379517 369.049713,452.294312 
	C367.386017,452.247314 365.716705,452.334015 364.056427,452.242615 
	C359.943604,452.016296 358.351379,454.163818 358.376831,458.014587 
	C358.410919,463.175354 358.363159,468.336639 358.383240,473.497559 
	C358.410736,480.564026 359.384827,481.542969 367.261353,481.695099 
z"/>
<path fill="#000000" opacity="1.000000" stroke="none" 
	d="
M677.128052,709.836182 
	C676.270569,708.577332 675.713257,707.532043 674.958313,706.657288 
	C672.549011,703.865417 673.493958,702.152161 676.407898,700.428894 
	C681.126343,697.638489 685.697632,694.586548 690.222412,691.486572 
	C692.631775,689.835876 694.312012,689.970215 695.986755,692.500916 
	C698.279724,695.965820 700.729126,699.337830 703.282166,702.616760 
	C705.398865,705.335327 704.448364,707.052063 701.911926,708.662231 
	C697.419556,711.513977 692.905396,714.345093 688.563354,717.415405 
	C685.390015,719.659424 683.235107,719.248352 681.347717,715.841614 
	C680.226379,713.817749 678.688354,712.024719 677.128052,709.836182 
z"/>
<path fill="#000000" opacity="1.000000" stroke="none" 
	d="
M434.727112,462.057983 
	C434.720978,459.571899 434.709137,457.574463 434.711121,455.576996 
	C434.712952,453.741852 434.281860,452.238251 432.072510,452.088348 
	C430.315247,451.969147 428.622681,452.071777 428.237274,454.273224 
	C427.884491,456.288116 427.208496,458.006134 424.745850,457.339355 
	C422.342346,456.688538 422.990631,454.478271 422.822906,452.735748 
	C422.411285,448.459808 423.769348,446.265961 428.645020,446.538239 
	C435.116119,446.899597 441.623932,446.577667 448.115631,446.614014 
	C449.688110,446.622803 451.908569,446.107391 452.108124,448.453278 
	C452.354095,451.344635 453.380615,454.584259 451.286224,457.066711 
	C450.311890,458.221527 448.028534,457.829376 447.887054,455.870911 
	C447.547241,451.166077 444.415192,451.926178 441.130585,452.048553 
	C441.130585,461.170013 441.107117,470.221558 441.149658,479.272766 
	C441.158569,481.169739 442.679108,481.578888 444.182098,482.022736 
	C445.457001,482.399200 445.969910,483.476410 445.855835,484.759186 
	C445.712372,486.372131 444.610138,487.090515 443.136871,487.116577 
	C439.643982,487.178345 436.148346,487.177551 432.655548,487.111420 
	C431.234619,487.084503 430.033203,486.563141 429.867310,484.863678 
	C429.716644,483.320496 430.291534,482.170471 431.874176,481.937988 
	C434.590790,481.538849 434.744324,479.657684 434.730988,477.528015 
	C434.699799,472.534393 434.725037,467.540436 434.727112,462.057983 
z"/>
<path fill="#000000" opacity="1.000000" stroke="none" 
	d="
M541.937256,486.820953 
	C540.188904,485.475983 539.821960,483.578705 541.153870,482.781128 
	C544.544739,480.750519 543.686035,477.691162 543.718018,474.822021 
	C543.780945,469.157013 543.756226,463.490753 543.727783,457.825165 
	C543.715454,455.377472 544.132263,452.888123 541.407959,451.192810 
	C540.065857,450.357605 539.966980,448.568756 541.230225,447.253296 
	C542.305664,446.133301 552.565247,446.353516 553.335266,447.560364 
	C554.599487,449.541656 554.036621,451.007751 551.718567,451.734558 
	C549.754211,452.350464 550.131592,454.055420 550.126282,455.495361 
	C550.099426,462.827271 550.119202,470.159393 550.124207,477.491425 
	C550.125610,479.587738 550.218018,481.826202 553.077576,481.664886 
	C555.599792,481.522583 559.075806,483.301025 559.992249,478.957489 
	C560.363770,477.196808 560.903625,475.631561 563.160095,475.986938 
	C565.460388,476.349243 565.222107,478.240509 565.332825,479.873505 
	C565.789612,486.611450 565.219360,487.247559 558.299011,487.225037 
	C552.971802,487.207703 547.644958,487.064484 541.937256,486.820953 
z"/>
<path fill="#000000" opacity="1.000000" stroke="none" 
	d="
M719.084473,756.387817 
	C709.153198,756.200806 705.695374,753.664795 702.702515,744.361328 
	C712.364563,745.001709 721.870972,744.646362 731.361328,744.543823 
	C735.803345,744.495789 737.042908,750.552917 739.820312,754.380066 
	C732.734436,756.907776 726.110229,756.248596 719.084473,756.387817 
z"/>
<path fill="#000000" opacity="1.000000" stroke="none" 
	d="
M448.626190,592.404053 
	C451.795563,596.283203 455.016571,599.701294 457.067596,603.937561 
	C458.322449,606.529541 459.435059,609.379272 456.789246,611.728638 
	C454.127533,614.092102 451.720795,612.116028 449.638916,610.556824 
	C443.287079,605.799622 438.570282,599.469971 434.322968,592.943237 
	C431.834961,589.119995 436.136505,586.545227 438.240723,584.220276 
	C440.141144,582.120483 441.620056,585.087036 442.931549,586.314148 
	C444.870575,588.128357 446.586945,590.180603 448.626190,592.404053 
z"/>
<path fill="#000000" opacity="1.000000" stroke="none" 
	d="
M644.214478,690.442261 
	C647.346680,690.831238 647.966919,693.143066 649.204041,696.149902 
	C642.259949,699.593506 635.468201,703.368591 628.336487,706.322937 
	C624.878479,707.755432 624.380127,703.938232 622.818115,700.987976 
	C629.963745,697.441284 636.917847,693.989624 644.214478,690.442261 
z"/>
<path fill="#000000" opacity="1.000000" stroke="none" 
	d="
M659.881714,681.779419 
	C665.321411,678.209351 670.582764,674.996582 675.673706,671.533264 
	C678.026428,669.932739 679.706299,669.690063 681.503418,672.240356 
	C683.491150,675.061096 681.866699,676.449280 679.714050,677.815613 
	C675.356018,680.581604 671.045410,683.424255 666.646301,686.122986 
	C662.073364,688.928711 660.182068,687.785889 659.881714,681.779419 
z"/>
<path fill="#000000" opacity="1.000000" stroke="none" 
	d="
M402.921265,443.091888 
	C400.611145,443.951569 398.629761,445.029755 396.460144,443.865448 
	C395.697968,443.456451 395.488342,442.432037 396.006653,441.669342 
	C397.438995,439.561646 399.210175,437.888885 401.963409,437.728882 
	C405.876038,437.501495 408.483124,439.246826 410.108276,442.914795 
	C407.736145,445.325623 405.505768,444.250519 402.921265,443.091888 
z"/>
<path fill="#000000" opacity="1.000000" stroke="none" 
	d="
M888.028931,661.503784 
	C892.085999,658.513672 903.015076,659.107117 907.057007,662.229309 
	C904.392273,665.136353 898.260803,665.003723 888.028931,661.503784 
z"/>
<path fill="#000000" opacity="1.000000" stroke="none" 
	d="
M524.098755,438.470215 
	C526.310913,441.457916 525.193481,443.067963 522.372620,443.853058 
	C520.787903,444.294067 519.123169,444.487396 517.480835,444.669708 
	C515.858887,444.849701 513.930664,445.301544 513.508484,442.932831 
	C513.147949,440.909943 514.909180,440.415894 516.282898,440.043304 
	C518.781250,439.365601 520.975159,437.366547 524.098755,438.470215 
z"/>
<path fill="#000000" opacity="1.000000" stroke="none" 
	d="
M608.566528,556.583313 
	C609.118958,554.720459 608.562500,552.893188 610.029724,551.662537 
	C612.660278,554.433350 612.053711,560.147095 608.460632,566.443787 
	C605.251282,563.118713 607.784607,560.025269 608.566528,556.583313 
z"/>
<path fill="#000000" opacity="1.000000" stroke="none" 
	d="
M600.122803,553.163208 
	C599.723267,554.920776 600.256042,556.605591 597.993103,557.824524 
	C594.821838,552.406189 599.678467,548.146057 599.031616,542.673218 
	C602.237610,545.637329 602.237610,545.637329 600.122803,553.163208 
z"/>
<path fill="#000000" opacity="1.000000" stroke="none" 
	d="
M582.774048,562.812561 
	C583.718323,559.120972 584.638611,555.827148 585.580627,552.539551 
	C585.606812,552.448242 585.865601,552.423584 586.015930,552.367859 
	C588.586853,555.129272 588.586853,555.129272 584.991272,566.068054 
	C582.712158,566.326477 582.952026,564.590149 582.774048,562.812561 
z"/>
</svg>